<?xml version="1.0" encoding="UTF-8"?>
<svg version="1.1" xmlns="http://www.w3.org/2000/svg" width="512" height="512">
<path d="M0 0 C168.96 0 337.92 0 512 0 C512 168.96 512 337.92 512 512 C343.04 512 174.08 512 0 512 C0 343.04 0 174.08 0 0 Z " fill="#2F81DB" transform="translate(0,0)"/>
<path d="M0 0 C0.93908203 0.00161133 1.87816406 0.00322266 2.84570312 0.00488281 C11.21344692 0.15275354 17.58583758 1.76420548 24.75 6.125 C25.45125 6.8675 26.1525 7.61 26.875 8.375 C27.33777344 8.8596875 27.80054688 9.344375 28.27734375 9.84375 C32.67736089 15.40166639 32.7157371 21.71763918 32.359375 28.515625 C31.50839342 35.29602664 28.88575705 39.82015024 23.8125 44.3125 C19.10703756 47.61633533 16.71480436 48.64044565 10.875 48.375 C9.98530747 45.3915999 9.67512729 43.86410027 10.87109375 40.9375 C11.58458984 39.6690625 11.58458984 39.6690625 12.3125 38.375 C15.90727818 30.97516413 16.24853479 23.56789566 13.6875 15.75 C11.06186494 12.30951268 9.06838741 10.77416425 4.75 9.98828125 C-5.1373633 9.27525024 -13.14940565 14.39860073 -20.4375 20.625 C-34.67749511 34.29630521 -42.9728657 53.36843966 -43.54443359 73.015625 C-43.63180129 85.63435457 -42.1979197 99.39104849 -33.45703125 109.2578125 C-26.97570454 115.1811442 -20.28814967 115.84691098 -11.72265625 115.67578125 C0.78828587 114.62980672 8.63750274 107.59807369 16.5 98.3125 C22.57606876 90.11553931 26.74833021 80.39628944 30.4375 70.9375 C32.73336345 65.27078686 35.80885358 60.91233076 39.875 56.375 C40.74511719 55.40046875 40.74511719 55.40046875 41.6328125 54.40625 C47.23528546 48.47717548 51.587184 45.18491677 59.9375 44.9375 C64.61236131 45.11258844 67.9984109 45.5644729 71.875 48.375 C74.25 51.0625 74.25 51.0625 75.875 53.375 C76.59816406 52.63443359 76.59816406 52.63443359 77.3359375 51.87890625 C77.96757812 51.23824219 78.59921875 50.59757812 79.25 49.9375 C79.87648437 49.29941406 80.50296875 48.66132813 81.1484375 48.00390625 C84.24511865 45.08237675 86.72105548 45.23050166 90.90234375 45.14453125 C92.875 45.375 92.875 45.375 95.875 47.375 C96.53103037 52.43580575 95.7681929 56.03447267 94.05078125 60.8125 C91.77765469 67.45406212 90.14018341 74.15075254 88.625 81 C88.356875 82.14984375 88.08875 83.2996875 87.8125 84.484375 C85.00843509 95.52096906 85.00843509 95.52096906 86.875 106.375 C91.49083035 106.28726187 91.49083035 106.28726187 95.40551758 104.05981445 C99.19560919 99.55231033 101.96114692 94.96060725 104.4375 89.625 C104.82099609 88.80443115 105.20449219 87.9838623 105.59960938 87.13842773 C110.7809361 75.62838658 114.42336691 63.32469196 114.44140625 50.625 C114.875 48.375 114.875 48.375 116.65625 46.59765625 C120.03597481 44.73523747 123.18307499 44.52695386 126.875 45.375 C129.80510948 47.51153816 130.63191105 48.14529225 131.875 51.375 C132.62120653 58.14291967 131.90857242 64.67372311 130.875 71.375 C131.40867188 70.55257812 131.94234375 69.73015625 132.4921875 68.8828125 C146.26564853 48.07556219 146.26564853 48.07556219 156.875 45.375 C160.07972382 44.78821958 162.68706116 44.65714064 165.875 45.375 C169.03696345 47.71523807 171.43207154 50.64755905 172.41723633 54.48974609 C172.61227769 56.81525909 172.60314969 59.0437693 172.5 61.375 C172.48251709 62.20080566 172.46503418 63.02661133 172.44702148 63.87744141 C172.13677867 71.79739931 170.23642268 78.84500158 167.875 86.375 C167.04638933 89.83015015 166.73925444 93.01109117 166.75 96.5625 C166.74742187 97.42230469 166.74484375 98.28210938 166.7421875 99.16796875 C166.73258616 101.41740508 166.73258616 101.41740508 167.875 103.375 C171.03723748 103.375 173.18232894 102.94311179 175.65625 100.9140625 C184.73649004 91.15678702 189.70584352 76.71750798 190.375 63.5625 C190.74689629 56.5640879 192.51764481 52.23240023 196.9375 46.875 C200.21673872 45.20049512 201.92725666 45.21721467 205.55859375 45.28125 C207.05024048 45.30155273 207.05024048 45.30155273 208.57202148 45.32226562 C209.71199585 45.34836914 209.71199585 45.34836914 210.875 45.375 C210.89687378 47.16562866 210.89687378 47.16562866 210.91918945 48.99243164 C210.97790882 53.49368742 211.05512487 57.99448064 211.13745117 62.49536133 C211.1703589 64.42985431 211.19849258 66.36443545 211.22143555 68.29907227 C211.36396889 80.00803447 212.00696365 90.98593792 214.875 102.375 C215.865 102.705 216.855 103.035 217.875 103.375 C222.98640804 100.33716818 225.50252089 95.60754429 228.4375 90.625 C229.14036133 89.46484375 229.14036133 89.46484375 229.85742188 88.28125 C232.77461193 83.41790657 235.39975252 78.47692186 237.875 73.375 C237.11703125 73.1378125 236.3590625 72.900625 235.578125 72.65625 C232.41199645 71.15554167 231.4452656 69.82574635 229.625 66.875 C229.12484375 66.0809375 228.6246875 65.286875 228.109375 64.46875 C224.62555286 58.55948207 225.07189319 51.09236537 225.875 44.375 C226.99890387 41.07595459 228.49329278 38.88972811 230.875 36.375 C231.74125 35.385 232.6075 34.395 233.5 33.375 C238.2846158 30.53967212 242.44107191 30.47210646 247.875 31.375 C251.57409886 33.48877077 253.26659639 35.49957923 254.875 39.375 C256.43291871 49.52607034 253.02378626 58.88365856 249.875 68.375 C251.25116443 68.31383714 252.62609379 68.22475557 254 68.125 C254.76570313 68.07859375 255.53140625 68.0321875 256.3203125 67.984375 C262.71636157 66.45871192 266.58871511 61.69976214 270.6875 56.9375 C276.02838277 51.00730686 280.65737644 46.03723684 288.921875 44.98828125 C294.57519535 44.78834675 298.16589023 45.03700018 302.875 48.375 C305.875 51.7887931 305.875 51.7887931 305.875 54.375 C306.57625 53.6325 307.2775 52.89 308 52.125 C312.0528768 48.24833523 315.29321406 45.16996207 321.0625 44.9375 C324.875 45.375 324.875 45.375 326.9375 46.4375 C329.57097187 51.88000854 325.47982906 60.99977422 324 66.5 C323.45758979 68.56751341 322.91591703 70.63522043 322.375 72.703125 C321.54319919 75.8668649 320.69409332 79.02147535 319.8125 82.171875 C317.49894139 90.93670279 317.58418336 99.38122601 317.875 108.375 C322.76363456 107.35183191 322.76363456 107.35183191 326.73046875 104.52734375 C327.17003906 103.79644531 327.60960937 103.06554687 328.0625 102.3125 C328.78373047 101.12140625 328.78373047 101.12140625 329.51953125 99.90625 C331.53006793 96.15170313 333.28720155 92.32581615 334.875 88.375 C335.865 88.375 336.855 88.375 337.875 88.375 C339.5139 91.6528 339.38759837 94.83394687 338.875 98.375 C335.86678869 107.02192131 330.69130487 113.73531928 322.4375 117.8125 C317.47137227 119.76016639 313.1656651 120.50994368 307.9609375 118.71484375 C303.09181081 116.32171978 301.09295697 113.25450534 298.875 108.375 C298.875 107.385 298.875 106.395 298.875 105.375 C298.215 105.375 297.555 105.375 296.875 105.375 C296.5346875 106.2103125 296.5346875 106.2103125 296.1875 107.0625 C293.25748301 112.22491089 288.53836797 116.22490929 283.125 118.5625 C277.65106432 119.93098392 273.15157823 120.34609705 268.125 117.6875 C262.07348577 113.38161487 259.2109892 108.6067676 257.875 101.375 C257.03471405 92.08200708 257.27382622 83.09927219 260.875 74.375 C260.25625 74.684375 259.6375 74.99375 259 75.3125 C255.875 76.375 255.875 76.375 253.6328125 76.16796875 C250.52421722 75.95976065 248.74433001 76.09496955 245.875 77.375 C243.18395163 81.08205642 241.21011596 84.93835019 239.15625 89.01953125 C233.54848005 100.11094083 223.99182972 112.6267014 212.875 118.375 C209.70420352 119.18562101 207.04552583 119.21524536 203.875 118.375 C195.38309884 111.97801719 193.85959862 98.13260989 191.875 88.375 C191.45089844 89.28121094 191.02679688 90.18742187 190.58984375 91.12109375 C185.24755848 102.31357387 179.41876969 112.60311515 167.875 118.375 C162.55152557 118.85466313 157.60624608 119.29362037 152.8125 116.75 C148.16716777 111.05572179 147.35438143 106.22854618 147.4375 99.125 C147.44144775 98.25254639 147.44539551 97.38009277 147.44946289 96.48120117 C147.61360401 88.87508025 148.98646731 81.82538487 150.90234375 74.48828125 C152.01771371 70.14626759 152.45920354 65.83496416 152.875 61.375 C141.76475182 65.26358686 135.98311462 78.51105452 130.875 88.375 C127.35552143 95.71999876 124.83416945 103.31293405 122.57348633 111.12060547 C121.08257992 116.16742008 121.08257992 116.16742008 118.875 118.375 C115.48827535 118.93552063 112.26612181 118.88913782 108.875 118.375 C106.25 116.4375 106.25 116.4375 104.875 113.375 C104.5807745 110.34143368 104.63691822 107.41054269 104.875 104.375 C104.215 104.375 103.555 104.375 102.875 104.375 C102.71 105.055625 102.545 105.73625 102.375 106.4375 C99.66091089 111.75259118 94.72879912 115.71559974 89.375 118.3125 C83.90946667 119.97167976 79.89401314 120.42333375 74.625 117.6875 C70.66846195 114.36041119 68.10788155 110.99745655 65.875 106.375 C65.3903125 106.97828125 64.905625 107.5815625 64.40625 108.203125 C59.45444167 114.10720416 55.22906249 118.57399853 47.39453125 119.74609375 C41.37163102 120.04678317 37.67348255 119.02184674 32.875 115.375 C28.54278604 110.44108966 27.34309697 104.62553409 25.875 98.375 C25.58109375 98.95765625 25.2871875 99.5403125 24.984375 100.140625 C18.83753953 111.37449672 9.48515262 120.83246483 -2.125 126.375 C-2.78113281 126.71144531 -3.43726563 127.04789062 -4.11328125 127.39453125 C-13.56151879 131.41232547 -27.4980032 130.83366751 -37.01953125 127.359375 C-49.70141566 121.43018229 -57.5669446 112.08568029 -62.34765625 98.93359375 C-67.23785882 82.83770088 -66.66643616 65.1608017 -61.125 49.375 C-60.774375 48.34117187 -60.42375 47.30734375 -60.0625 46.2421875 C-53.42460782 28.58723816 -39.62090652 12.95088912 -22.38671875 5.1328125 C-19.98228221 4.15678937 -17.5661914 3.25399554 -15.125 2.375 C-14.4134375 2.01792969 -13.701875 1.66085938 -12.96875 1.29296875 C-8.67353711 -0.09353541 -4.48742995 -0.00789485 0 0 Z " fill="#F9FBFD" transform="translate(124.125,181.625)"/>
<path d="M0 0 C3.3125 0.625 3.3125 0.625 4.9921875 2.2734375 C9.13139746 9.64563985 6.26493688 20.85365174 4.22607422 28.70507812 C1.70950062 37.42693085 -1.95994301 46.40004835 -9.6875 51.625 C-12.8125 52.125 -12.8125 52.125 -15.6875 51.625 C-18.87282471 48.54951408 -19.55360636 45.33471873 -19.890625 41.03125 C-20.1176616 26.9549805 -16.14167469 13.58468295 -6.6875 2.8125 C-3.6875 0.625 -3.6875 0.625 0 0 Z " fill="#3E73DA" transform="translate(420.6875,237.375)"/>
<path d="M0 0 C2.875 0.875 2.875 0.875 4.875 3.875 C6.41550787 20.85641229 3.29489295 36.11731793 -7.125 49.875 C-10.59423881 52.18782587 -12.04705575 52.29978586 -16.125 51.875 C-18.68449546 50.02157225 -19.10418798 48.93743607 -20.125 45.875 C-21.42845241 30.38206572 -19.09092793 16.82724722 -8.8359375 4.57421875 C-4.06639486 -0.16265579 -4.06639486 -0.16265579 0 0 Z " fill="#17A3D5" transform="translate(190.125,237.125)"/>
<path d="M0 0 C0.495 0.495 0.495 0.495 1 1 C2.175625 1.103125 3.35125 1.20625 4.5625 1.3125 C11.92058287 2.19284206 17.45046005 5.63879571 22.45703125 11.0234375 C26.82030565 16.61284724 28.72611169 22.37287017 28.375 29.4609375 C27.07950931 38.23248903 22.6816161 45.22668553 16 51 C11.86995063 53.01076592 8.59973134 53.42590105 4 53 C2 51.9375 2 51.9375 1 50 C1 45.17289555 2.45775566 41.96750488 4.625 37.6875 C7.26847306 32.13315054 7.61273191 27.92759079 6 22 C4.27378352 18.2339481 4.27378352 18.2339481 1 16 C-7.46096363 15.06286795 -14.05589246 15.96315113 -21 21 C-37.93066087 35.09868375 -44.87380128 52.66580605 -48 74 C-48.21140625 75.28132813 -48.4228125 76.56265625 -48.640625 77.8828125 C-49.27656307 80.90246489 -49.27656307 80.90246489 -48 83 C-47.65664065 85.22462236 -47.34958023 87.45491737 -47.0625 89.6875 C-46.38577386 94.638286 -45.57856951 99.26429146 -44 104 C-44.99 104.495 -44.99 104.495 -46 105 C-46.65256456 103.29422658 -47.29673041 101.58523911 -47.9375 99.875 C-48.29714844 98.92367187 -48.65679687 97.97234375 -49.02734375 96.9921875 C-54.68008866 79.60261883 -51.11498432 59.76966736 -43.3125 43.6875 C-36.89062121 31.17783735 -27.62610282 20.43216559 -15 14 C-14.236875 13.5875 -13.47375 13.175 -12.6875 12.75 C-7.05347913 11.17771511 -1.8745025 11.11387154 3.4375 13.625 C8.21721181 18.0549768 9.21203558 21.79165867 9.5 28.1875 C9.39061209 34.16281473 7.91997548 38.43948974 5.09375 43.66015625 C3.71769004 46.17346525 3.71769004 46.17346525 4 50 C9.03864942 50.62983118 12.01746723 49.36727287 16.1015625 46.63671875 C19.79803287 43.44984409 21.84762594 39.30474812 24 35 C24.17778623 32.40024068 24.27753022 29.85175193 24.3125 27.25 C24.34150391 26.54617187 24.37050781 25.84234375 24.40039062 25.1171875 C24.46336639 19.90473211 23.22377119 17.2474934 20 13 C20 12.34 20 11.68 20 11 C19.443125 10.731875 18.88625 10.46375 18.3125 10.1875 C16 9 16 9 13.6875 7.5 C4.08417285 2.14000345 -10.46126886 2.01588966 -20.91015625 4.91015625 C-24.0836922 6.08652059 -27.01207107 7.41371189 -30 9 C-31.31484375 9.66902344 -31.31484375 9.66902344 -32.65625 10.3515625 C-39.23974219 13.98873874 -44.65515788 18.74559514 -50 24 C-50.94166016 24.92232422 -50.94166016 24.92232422 -51.90234375 25.86328125 C-63.68476162 38.34035415 -71.17315728 56.69329739 -71.09765625 73.83203125 C-71.09443359 75.12431641 -71.09121094 76.41660156 -71.08789062 77.74804688 C-71.07953665 79.10286526 -71.07107172 80.45768297 -71.0625 81.8125 C-71.05748 83.18684735 -71.05291797 84.56119645 -71.04882812 85.93554688 C-71.03705668 89.29040924 -71.02061283 92.64518221 -71 96 C-71.66 96 -72.32 96 -73 96 C-77.53654513 74.09180646 -72.97220216 51.35026365 -60.86328125 32.7109375 C-49.33251513 16.81337165 -34.09914357 4.28867065 -14.4453125 0.30859375 C-9.65832021 -0.2955155 -4.81111994 -0.33584116 0 0 Z " fill="#18B9CE" transform="translate(131,179)"/>
<path d="M0 0 C1.69859667 1.29241051 3.37609523 2.61490475 5 4 C5.7425 3.38125 6.485 2.7625 7.25 2.125 C11.80492535 -1.39471504 15.06774084 -2.5266176 20.80078125 -2.375 C23 -2 23 -2 26.125 0.0625 C28.15780824 3.24723291 28.13397322 4.17397325 27.50292969 7.74536133 C26.37206127 12.81505541 24.9557275 17.80993366 23.5625 22.8125 C21.42529728 30.50202318 19.42316592 38.14310042 18 46 C16.17219493 42.62108816 15.83434471 41.04986573 16.625 37.25 C16.82351562 36.29351562 17.02203125 35.33703125 17.2265625 34.3515625 C18.12986679 30.4372439 19.04462002 26.52695414 20 22.625 C20.2487085 21.60841309 20.2487085 21.60841309 20.50244141 20.57128906 C21.22157891 17.72437964 21.9960103 15.00966734 23.1171875 12.29296875 C24.03844785 9.90013767 24.21124432 8.23170746 24.125 5.6875 C24.08375 4.470625 24.0425 3.25375 24 2 C20.69782418 0.34891209 17.53949789 0.22032039 14 1 C10.98815204 3.01140895 8.50757206 5.39824682 6 8 C5.34 8.66 4.68 9.32 4 10 C1 5.25 1 5.25 1 3 C-4.79645112 0.4237995 -10.78383034 0.09481035 -17 1 C-20.47582368 2.50726305 -23.15028627 4.52510355 -26 7 C-26.61488281 7.50660156 -27.22976562 8.01320312 -27.86328125 8.53515625 C-35.85709331 15.7490842 -39.99064227 25.60607162 -43.72192383 35.47119141 C-49.44652196 50.22326098 -49.44652196 50.22326098 -55 53 C-55 52.01 -55 51.02 -55 50 C-54.34 50 -53.68 50 -53 50 C-53 49.01 -53 48.02 -53 47 C-52.34 47 -51.68 47 -51 47 C-50.8875293 46.2972998 -50.77505859 45.59459961 -50.65917969 44.87060547 C-49.38489986 39.3213528 -46.63780261 34.2701461 -44.25 29.125 C-43.7240625 27.96613281 -43.198125 26.80726563 -42.65625 25.61328125 C-36.72621999 12.76977566 -30.03257963 4.04653879 -17 -2 C-10.69005045 -3.90376087 -5.65343917 -3.44122384 0 0 Z " fill="#1DADD2" transform="translate(195,227)"/>
<path d="M0 0 C2.87883603 1.84388258 4.50530736 3.94071902 6 7 C6.72901094 10.34859027 6.98622671 13.57733651 7 17 C7.99 17 8.98 17 10 17 C10.33 15.68 10.66 14.36 11 13 C11.66 13 12.32 13 13 13 C11.62666848 16.82472829 9.85872294 19.88428843 7.5 23.1875 C6.8915625 24.04730469 6.283125 24.90710938 5.65625 25.79296875 C4 28 4 28 2 30 C2.165 28.783125 2.33 27.56625 2.5 26.3125 C2.92673933 22.2935072 3.18840463 18.2899936 3.3125 14.25 C3.34988281 13.18265625 3.38726562 12.1153125 3.42578125 11.015625 C2.89220542 7.23653747 1.73991374 5.62016226 -1 3 C-3.89701116 2.20485106 -5.93237756 2.65915306 -9 3 C-9.99 3.66 -10.98 4.32 -12 5 C-12.40243738 7.24799735 -12.40243738 7.24799735 -12.375 9.9375 C-13.08254282 21.89352972 -16.56702649 34.33527422 -22 45 C-22.66 44.34 -23.32 43.68 -24 43 C-23.66226563 42.03320312 -23.32453125 41.06640625 -22.9765625 40.0703125 C-19.71027478 30.5949046 -17.1654318 21.76083173 -16.6875 11.6875 C-16.42710357 7.93586253 -16.25546713 5.53696382 -13.5625 2.8125 C-9.11763782 -0.33142691 -5.38458843 -1.06607623 0 0 Z " fill="#2DA6D6" transform="translate(252,225)"/>
<path d="M0 0 C0.33 0 0.66 0 1 0 C1.226875 1.0725 1.45375 2.145 1.6875 3.25 C4.7955589 15.50835817 9.75003161 25.96007443 20.69140625 32.75 C27.64344131 36.51421526 34.41748754 38.05483716 42.25 38.5625 C43.51328125 38.64628906 44.7765625 38.73007812 46.078125 38.81640625 C47.52445313 38.90728516 47.52445313 38.90728516 49 39 C49 39.33 49 39.66 49 40 C41.08 40.495 41.08 40.495 33 41 C33 40.34 33 39.68 33 39 C32.05125 39.12375 31.1025 39.2475 30.125 39.375 C22.72743558 39.33025667 16.52166342 33.74770431 11.3125 29 C4.60716197 21.97309158 -0.25204657 12.74676819 -1 3 C-0.67 2.01 -0.34 1.02 0 0 Z " fill="#2AAAD5" transform="translate(60,272)"/>
<path d="M0 0 C5.1439588 4.72717749 8.46994062 10.01670323 9.42578125 17.01171875 C9.63945563 22.81653929 8.42929628 27.21474744 6.08203125 32.49609375 C5.09203125 32.49609375 4.10203125 32.49609375 3.08203125 32.49609375 C3.40429688 31.83480469 3.7265625 31.17351562 4.05859375 30.4921875 C5.31443823 26.81572676 5.44990082 23.39832949 5.45703125 19.55859375 C5.49376953 18.5231543 5.49376953 18.5231543 5.53125 17.46679688 C5.56072061 12.2848819 4.15393272 9.56970223 1.08203125 5.49609375 C1.08203125 4.83609375 1.08203125 4.17609375 1.08203125 3.49609375 C0.52515625 3.22796875 -0.03171875 2.95984375 -0.60546875 2.68359375 C-2.91796875 1.49609375 -2.91796875 1.49609375 -5.23046875 -0.00390625 C-10.82498167 -3.12642509 -16.53605558 -3.79336219 -22.85546875 -4.12890625 C-23.53931641 -4.16757813 -24.22316406 -4.20625 -24.92773438 -4.24609375 C-26.59076388 -4.33913037 -28.25432722 -4.42254412 -29.91796875 -4.50390625 C-29.91796875 -4.83390625 -29.91796875 -5.16390625 -29.91796875 -5.50390625 C-18.67686591 -6.72169239 -9.29956023 -7.29191586 0 0 Z " fill="#1EBCCE" transform="translate(149.91796875,186.50390625)"/>
<path d="M0 0 C0.598125 0.226875 1.19625 0.45375 1.8125 0.6875 C2.13348157 9.04490901 2.03069111 15.91020481 -1.1875 23.6875 C-4.66400352 20.17657565 -5.68092645 17.66936555 -5.68554688 12.70703125 C-5.66556641 11.99933594 -5.64558594 11.29164063 -5.625 10.5625 C-5.63208984 9.84707031 -5.63917969 9.13164062 -5.64648438 8.39453125 C-5.61027964 5.41460291 -5.50360448 3.19597387 -3.91015625 0.6328125 C-2.1875 -0.3125 -2.1875 -0.3125 0 0 Z " fill="#2A90D7" transform="translate(367.1875,222.3125)"/>
<path d="M0 0 C2.39081565 3.6528819 1.95276374 6.11095518 1.1875 10.3125 C0.88972656 12.03339844 0.88972656 12.03339844 0.5859375 13.7890625 C0.39257812 14.84867188 0.19921875 15.90828125 0 17 C-1.02636375 21.60195018 -1.02636375 21.60195018 0 26 C0.34335935 28.22462236 0.65041977 30.45491737 0.9375 32.6875 C1.61422614 37.638286 2.42143049 42.26429146 4 47 C3.01 47.495 3.01 47.495 2 48 C1.34743544 46.29422658 0.70326959 44.58523911 0.0625 42.875 C-0.29714844 41.92367187 -0.65679687 40.97234375 -1.02734375 39.9921875 C-4.97746202 27.84041805 -4.57580582 11.87530558 0 0 Z " fill="#20B6D1" transform="translate(83,236)"/>
<path d="M0 0 C0.39363688 7.74152536 -1.05789567 14.52058632 -3 22 C-3.66 21.67 -4.32 21.34 -5 21 C-4.5683694 16.89950928 -4.10273905 13.06537872 -2.875 9.125 C-1.65763277 6.12488867 -1.65763277 6.12488867 -3 4 C-4.175625 5.2375 -4.175625 5.2375 -5.375 6.5 C-8 9 -8 9 -10 9 C-10.268125 9.721875 -10.53625 10.44375 -10.8125 11.1875 C-11.99901362 13.99766383 -13.27485639 16.48416557 -15 19 C-15.66 19 -16.32 19 -17 19 C-17.33 20.65 -17.66 22.3 -18 24 C-18.66 24 -19.32 24 -20 24 C-18.64978901 19.23835168 -16.57761727 15.45195997 -13.75 11.4375 C-13.38003906 10.88642578 -13.01007813 10.33535156 -12.62890625 9.76757812 C-9.53506675 5.3168841 -5.77908093 0 0 0 Z " fill="#1D99D6" transform="translate(277,243)"/>
<path d="M0 0 C0.33 0 0.66 0 1 0 C1.18175781 0.81984375 1.36351562 1.6396875 1.55078125 2.484375 C1.92783203 4.10085938 1.92783203 4.10085938 2.3125 5.75 C2.67794922 7.35101563 2.67794922 7.35101563 3.05078125 8.984375 C3.98159307 11.94152203 5.0840935 13.61719192 7 16 C7 16.66 7 17.32 7 18 C7.804375 18.268125 8.60875 18.53625 9.4375 18.8125 C10.283125 19.204375 11.12875 19.59625 12 20 C12.33 20.99 12.66 21.98 13 23 C8.57299578 21.60865582 6.00586708 19.52115858 3 16 C3 15.01 3 14.02 3 13 C2.34 13 1.68 13 1 13 C0.34 11.35 -0.32 9.7 -1 8 C-3.64 10.97 -6.28 13.94 -9 17 C-9.99 16.67 -10.98 16.34 -12 16 C-11.46890625 15.43152344 -10.9378125 14.86304688 -10.390625 14.27734375 C-6.23975177 9.74016662 -2.7982554 5.47991683 0 0 Z " fill="#279ED8" transform="translate(150,279)"/>
<path d="M0 0 C0.33 0 0.66 0 1 0 C2.32665677 13.11916135 -2.08111775 27.38145337 -8 39 C-8.66 38.34 -9.32 37.68 -10 37 C-9.66226563 36.03320312 -9.32453125 35.06640625 -8.9765625 34.0703125 C-6.46564793 26.77768612 -4.20519086 19.64486741 -3 12 C-2.34 12 -1.68 12 -1 12 C-0.67 8.04 -0.34 4.08 0 0 Z " fill="#229FD7" transform="translate(238,231)"/>
<path d="M0 0 C0.66 0 1.32 0 2 0 C-1.93360016 12.37985837 -6.68181482 24.88820614 -15 35 C-15.495 33.515 -15.495 33.515 -16 32 C-15.34 32 -14.68 32 -14 32 C-14 31.01 -14 30.02 -14 29 C-13.34 29 -12.68 29 -12 29 C-11.88664307 28.29335205 -11.77328613 27.5867041 -11.65649414 26.85864258 C-10.94179735 23.74656198 -9.8424949 21.15570743 -8.49609375 18.26171875 C-8.00302734 17.19501953 -7.50996094 16.12832031 -7.00195312 15.02929688 C-6.48568359 13.92650391 -5.96941406 12.82371094 -5.4375 11.6875 C-4.91736328 10.56537109 -4.39722656 9.44324219 -3.86132812 8.28710938 C-2.57900626 5.52247049 -1.29175153 2.76024234 0 0 Z " fill="#17A7D3" transform="translate(156,245)"/>
<path d="M0 0 C0.66 0.99 1.32 1.98 2 3 C-3.56322204 11.0496782 -10.08778899 17.84517152 -20 20 C-23.74610227 20.19047978 -26.43945927 20.18684691 -30 19 C-30 18.34 -30 17.68 -30 17 C-29.32195312 17.05800781 -28.64390625 17.11601562 -27.9453125 17.17578125 C-20.48150331 17.53760025 -15.1400773 16.35444257 -9 12 C-5.17754056 8.42529256 -2.20363953 4.75689496 0 0 Z " fill="#5257DF" transform="translate(461,283)"/>
<path d="M0 0 C0.66 0.33 1.32 0.66 2 1 C2 1.66 2 2.32 2 3 C2.639375 3.268125 3.27875 3.53625 3.9375 3.8125 C6 5 6 5 7 8 C6.01 8.495 6.01 8.495 5 9 C4.360625 8.01 3.72125 7.02 3.0625 6 C1.40334734 4.02214005 0.46201206 3.12121229 -2.0546875 2.4609375 C-9.46900461 2.17873166 -15.39813874 5.33178228 -21 10 C-21 8.68 -21 7.36 -21 6 C-18 4 -18 4 -15 4 C-15 3.34 -15 2.68 -15 2 C-13.68 2 -12.36 2 -11 2 C-11 1.34 -11 0.68 -11 0 C-6.91113345 -1.36295552 -4.25441935 -0.67530466 0 0 Z " fill="#27A5D5" transform="translate(290,225)"/>
<path d="M0 0 C4.03810445 1.34603482 5.47295076 3.65336723 8 7 C8 7.66 8 8.32 8 9 C8.763125 9.144375 9.52625 9.28875 10.3125 9.4375 C13 10 13 10 16 11 C19.38616749 11.26867576 22.77189532 11.4451204 26.1640625 11.62109375 C27.09992188 11.74613281 28.03578125 11.87117188 29 12 C29.33 12.66 29.66 13.32 30 14 C17.94964783 14.45126145 11.79486062 13.74961911 2.6015625 5.81640625 C0.87032413 3.85292859 0.39350392 2.55777545 0 0 Z " fill="#1AA0D5" transform="translate(86,284)"/>
<path d="M0 0 C0.66 0.66 1.32 1.32 2 2 C1.53914393 8.24250488 -0.14931084 14.35326543 -1.5625 20.4375 C-1.79646484 21.45521484 -2.03042969 22.47292969 -2.27148438 23.52148438 C-2.84509303 26.01492607 -3.42132897 28.50772922 -4 31 C-5.82780507 27.62108816 -6.16565529 26.04986573 -5.375 22.25 C-5.1790625 21.29996094 -4.983125 20.34992188 -4.78125 19.37109375 C-3.27935795 12.89042955 -1.66469247 6.44058201 0 0 Z " fill="#20A0D6" transform="translate(217,242)"/>
<path d="M0 0 C2.51522326 1.0033896 5.02811104 2.01147831 7.53515625 3.03515625 C8.36917969 3.37417969 9.20320313 3.71320313 10.0625 4.0625 C10.89910156 4.40410156 11.73570313 4.74570312 12.59765625 5.09765625 C17.17357676 6.81641664 21.35902431 7.24549232 26.25 7.5625 C27.51328125 7.64628906 28.7765625 7.73007812 30.078125 7.81640625 C31.04234375 7.87699219 32.0065625 7.93757813 33 8 C33 8.33 33 8.66 33 9 C25.08 9.495 25.08 9.495 17 10 C17 9.34 17 8.68 17 8 C16.05125 8.12375 15.1025 8.2475 14.125 8.375 C8.71580721 8.41942869 4.15266026 5.22520495 0 2 C0 1.34 0 0.68 0 0 Z " fill="#2EA0D9" transform="translate(76,303)"/>
<path d="M0 0 C4.69555028 1.74932265 7.13304192 3.92009812 10 8 C9.01 8 8.02 8 7 8 C7 7.34 7 6.68 7 6 C1.17634262 3.73524435 -4.8560816 2.93451186 -11 2 C-7.1350831 -0.11810948 -4.44020228 -0.38277606 0 0 Z " fill="#2AB4D3" transform="translate(189,224)"/>
<path d="M0 0 C2.18977834 2.18977834 3.50894392 4.54937904 5 7.24609375 C5.92809546 8.87388619 6.96061121 10.44091682 8 12 C6 11 4 10 2 9 C1.67 8.01 1.34 7.02 1 6 C-2.65316671 7.24976756 -3.78065836 7.67098753 -6 11 C-6.99 10.67 -7.98 10.34 -9 10 C-6.03 6.7 -3.06 3.4 0 0 Z " fill="#2295DA" transform="translate(190,287)"/>
<path d="M0 0 C0.66 0 1.32 0 2 0 C2.12117188 0.92941406 2.24234375 1.85882813 2.3671875 2.81640625 C3.61185801 12.03618764 3.61185801 12.03618764 6 21 C5.34 21.33 4.68 21.66 4 22 C0.73317769 14.46005743 -0.57184845 8.21237916 0 0 Z " fill="#15AAD2" transform="translate(81,262)"/>
<path d="M0 0 C0 0.33 0 0.66 0 1 C-0.69867188 1.12117187 -1.39734375 1.24234375 -2.1171875 1.3671875 C-3.48230469 1.61855469 -3.48230469 1.61855469 -4.875 1.875 C-5.77992188 2.03742188 -6.68484375 2.19984375 -7.6171875 2.3671875 C-10.16505988 2.83044703 -10.16505988 2.83044703 -12 5 C-12.6837613 7.88717605 -12.6837613 7.88717605 -13.125 11.125 C-13.29257813 12.22070312 -13.46015625 13.31640625 -13.6328125 14.4453125 C-13.75398437 15.28835937 -13.87515625 16.13140625 -14 17 C-14.33 17 -14.66 17 -15 17 C-15.76595745 6.32765957 -15.76595745 6.32765957 -13.125 1.75 C-8.72783423 -0.71241283 -4.92847709 -0.43064363 0 0 Z " fill="#11A5D2" transform="translate(251,226)"/>
<path d="M0 0 C0.33 0.66 0.66 1.32 1 2 C0.27554688 2.03738281 -0.44890625 2.07476562 -1.1953125 2.11328125 C-6.90560048 2.50158083 -10.91878818 3.2053335 -16 6 C-16.99 5.67 -17.98 5.34 -19 5 C-12.83432006 -0.02388736 -7.71255046 -0.26956487 0 0 Z " fill="#2FC2D1" transform="translate(131,191)"/>
<path d="M0 0 C0.33 0.66 0.66 1.32 1 2 C0.11248047 2.14695313 0.11248047 2.14695313 -0.79296875 2.296875 C-7.05276225 3.48143625 -10.72473512 5.17553326 -14.8125 10.25 C-15.204375 10.8275 -15.59625 11.405 -16 12 C-15.74220026 8.21893711 -15.47578037 6.47578037 -12.75 3.75 C-8.39966917 0.98160766 -5.19181441 -0.29667511 0 0 Z " fill="#1698D4" transform="translate(332,224)"/>
<path d="M0 0 C0.33 0 0.66 0 1 0 C1.38999191 7.59762024 0.60758587 13.84466021 -2 21 C-2.33 21 -2.66 21 -3 21 C-3 18.03 -3 15.06 -3 12 C-2.34 12 -1.68 12 -1 12 C-0.67 8.04 -0.34 4.08 0 0 Z " fill="#3BADD8" transform="translate(238,231)"/>
<path d="M0 0 C1.60294922 0.01353516 1.60294922 0.01353516 3.23828125 0.02734375 C4.04652344 0.03894531 4.85476562 0.05054688 5.6875 0.0625 C5.6875 0.7225 5.6875 1.3825 5.6875 2.0625 C-2.7275 2.5575 -2.7275 2.5575 -11.3125 3.0625 C-11.3125 2.4025 -11.3125 1.7425 -11.3125 1.0625 C-7.47525828 0.15836327 -3.93747726 -0.04326898 0 0 Z " fill="#0CBDCC" transform="translate(125.3125,178.9375)"/>
<path d="M0 0 C2.875 0.1875 2.875 0.1875 6 1 C8.30109042 5.01215766 8.08073936 8.30068035 7.625 12.8125 C7.45871094 14.55466797 7.45871094 14.55466797 7.2890625 16.33203125 C7.19367188 17.21246094 7.09828125 18.09289062 7 19 C6.67 19 6.34 19 6 19 C5.67 13.39 5.34 7.78 5 2 C3.02 2 1.04 2 -1 2 C-0.67 1.34 -0.34 0.68 0 0 Z " fill="#31AFD5" transform="translate(187,237)"/>
<path d="M0 0 C0 0.99 0 1.98 0 3 C-0.66386719 2.84660156 -1.32773438 2.69320312 -2.01171875 2.53515625 C-5.60155922 1.89226979 -9.17795419 1.64966009 -12.8125 1.4375 C-13.85180664 1.37272461 -13.85180664 1.37272461 -14.91210938 1.30664062 C-16.60788686 1.20138547 -18.30392052 1.10027137 -20 1 C-20 0.67 -20 0.34 -20 0 C-13.12631267 -0.74464946 -6.83079148 -1.18225237 0 0 Z " fill="#37C4D1" transform="translate(140,181)"/>
<path d="M0 0 C-0.99 0.66 -1.98 1.32 -3 2 C-3.7115625 2.50917969 -4.423125 3.01835937 -5.15625 3.54296875 C-5.9296875 4.08566406 -6.703125 4.62835938 -7.5 5.1875 C-8.2734375 5.73792969 -9.046875 6.28835937 -9.84375 6.85546875 C-10.91109375 7.42201172 -10.91109375 7.42201172 -12 8 C-12.99 7.67 -13.98 7.34 -15 7 C-11.19676155 2.52560182 -5.96922975 -0.723543 0 0 Z " fill="#13B0D0" transform="translate(181,226)"/>
<path d="M0 0 C-4.22385456 3.44165927 -7.50060584 5 -13 5 C-13 4.34 -13 3.68 -13 3 C-11.40084119 2.30093058 -9.79544955 1.61610532 -8.1875 0.9375 C-7.29417969 0.55464844 -6.40085937 0.17179687 -5.48046875 -0.22265625 C-3 -1 -3 -1 0 0 Z " fill="#1C9DD6" transform="translate(129,292)"/>
<path d="M0 0 C0.66 0 1.32 0 2 0 C1.34 3.96 0.68 7.92 0 12 C-0.66 12 -1.32 12 -2 12 C-1.85904936 10.3745692 -1.71207913 8.74965949 -1.5625 7.125 C-1.48128906 6.22007812 -1.40007812 5.31515625 -1.31640625 4.3828125 C-1 2 -1 2 0 0 Z " fill="#2190D9" transform="translate(294,258)"/>
<path d="M0 0 C0.66 0 1.32 0 2 0 C0.6062718 4.43458973 -1.60582235 6.87378374 -5 10 C-5 8.35 -5 6.7 -5 5 C-3.68 4.67 -2.36 4.34 -1 4 C-0.67 2.68 -0.34 1.36 0 0 Z " fill="#1FA1D5" transform="translate(263,238)"/>
<path d="M0 0 C0.66 0.66 1.32 1.32 2 2 C1.625 5.625 1.625 5.625 1 9 C0.01 9.33 -0.98 9.66 -2 10 C-1.34 6.7 -0.68 3.4 0 0 Z " fill="#2CAAD6" transform="translate(217,242)"/>
<path d="M0 0 C-0.33 0.99 -0.66 1.98 -1 3 C-4.96 3 -8.92 3 -13 3 C-13 2.67 -13 2.34 -13 2 C-11.20873548 1.66451233 -9.41697413 1.33167645 -7.625 1 C-6.62726563 0.814375 -5.62953125 0.62875 -4.6015625 0.4375 C-2 0 -2 0 0 0 Z " fill="#1487DA" transform="translate(215,299)"/>
<path d="M0 0 C2.52349243 3.12432397 4.27256146 6.38060496 6 10 C2.5442399 8.84807997 1.80171463 8.08865366 0 5 C-0.1875 2.25 -0.1875 2.25 0 0 Z " fill="#278CD9" transform="translate(350,242)"/>
<path d="M0 0 C0.66 0 1.32 0 2 0 C3.20272819 2.40545638 3.10071472 3.94996953 3.0625 6.625 C3.05347656 7.44226563 3.04445313 8.25953125 3.03515625 9.1015625 C3.02355469 9.72804687 3.01195312 10.35453125 3 11 C1.0210244 7.36383344 0.4748935 4.11574371 0 0 Z " fill="#12A2D3" transform="translate(255,230)"/>
<path d="M0 0 C0.33 0.99 0.66 1.98 1 3 C-0.65 4.65 -2.3 6.3 -4 8 C-4.99 7.67 -5.98 7.34 -7 7 C-4.69 4.69 -2.38 2.38 0 0 Z " fill="#1291D8" transform="translate(188,290)"/>
<path d="M0 0 C-1.39332574 3.36720387 -2.9789286 4.9859524 -6 7 C-6 4 -6 4 -4.125 1.8125 C-2 0 -2 0 0 0 Z " fill="#27BECF" transform="translate(85,197)"/>
<path d="M0 0 C-3.3111013 1.10370043 -5.24748949 0.92673641 -8.6875 0.5625 C-9.68136719 0.46066406 -10.67523438 0.35882813 -11.69921875 0.25390625 C-12.45847656 0.17011719 -13.21773438 0.08632812 -14 0 C-14 -0.33 -14 -0.66 -14 -1 C-12.23086176 -1.22226864 -10.45955629 -1.42733873 -8.6875 -1.625 C-7.70136719 -1.74101562 -6.71523437 -1.85703125 -5.69921875 -1.9765625 C-3 -2 -3 -2 0 0 Z " fill="#1FBECE" transform="translate(135,194)"/>
</svg>
