<svg version="1.1" id="Layer_1" xmlns="http://www.w3.org/2000/svg" xmlns:xlink="http://www.w3.org/1999/xlink" x="0px" y="0px"
	 width="100%" viewBox="0 0 531 532" enable-background="new 0 0 531 532" xml:space="preserve">
<path fill="#1C0A33" opacity="1.000000" stroke="none" 
	d="
M532.000000,182.000000 
	C532.000000,299.305878 532.000000,416.111725 532.000000,532.958801 
	C355.069092,532.958801 178.138184,532.958801 1.103638,532.958801 
	C1.103638,355.777496 1.103638,178.554947 1.103638,1.166185 
	C177.999878,1.166185 354.999939,1.166185 532.000000,1.166185 
	C532.000000,61.195103 532.000000,121.347549 532.000000,182.000000 
M417.979858,443.980499 
	C417.979858,443.980499 417.973358,443.909180 417.144257,443.542755 
	C417.065369,444.023102 416.986481,444.503448 416.997589,444.995544 
	C416.997589,444.995544 417.008453,444.905426 416.487305,444.290985 
	C415.972870,444.837189 415.458466,445.383392 414.998779,445.997559 
	C414.998779,445.997559 414.937073,445.936005 414.384003,445.929779 
	C413.876434,446.445038 413.368866,446.960297 412.300903,447.940216 
	C410.849915,449.921906 409.398926,451.903625 407.360596,454.035065 
	C405.912811,454.692535 404.465027,455.350006 402.512329,455.978485 
	C402.351257,456.028259 402.190186,456.078003 401.551758,455.999359 
	C400.937958,456.496857 400.324158,456.994354 398.987946,457.870331 
	C398.112885,458.499390 397.237823,459.128479 395.768677,459.862061 
	C394.807159,460.552582 393.845673,461.243103 392.324829,462.038269 
	C392.158661,462.443634 391.992462,462.849030 391.742615,463.291748 
	C391.742615,463.291748 391.700104,463.210571 390.709900,463.115936 
	C390.147736,463.466583 389.585602,463.817261 388.417419,464.214355 
	C387.603455,464.777588 386.789520,465.340820 385.285461,466.026031 
	C379.591400,469.355530 374.176300,473.364838 368.133545,475.844604 
	C360.369263,479.030792 352.107117,481.008972 344.048065,483.470306 
	C336.121613,485.891174 328.212402,488.377777 320.233612,490.614380 
	C316.049591,491.787262 311.732666,492.486115 307.475800,493.399048 
	C307.381622,493.004242 307.287476,492.609436 307.193329,492.214630 
	C310.146423,491.323517 313.056488,490.237885 316.059692,489.573181 
	C334.115784,485.576904 351.472198,479.590302 368.027161,471.354706 
	C370.224396,470.261627 372.059387,468.440247 374.412689,467.299133 
	C374.449493,467.556366 374.486298,467.813629 374.523102,468.070862 
	C374.410950,467.954529 374.183563,467.801758 374.206818,467.728210 
	C374.303345,467.422852 374.475494,467.141327 374.983612,466.406769 
	C375.311432,466.345062 375.639282,466.283356 376.125946,466.833160 
	C376.747040,466.534149 377.368134,466.235138 378.639618,465.814301 
	C379.135620,464.862793 379.631592,463.911285 380.663483,462.823059 
	C383.994415,464.118652 384.481903,461.575409 385.397949,459.068420 
	C385.722565,458.940826 386.047180,458.813263 387.132782,458.892273 
	C387.392792,458.922180 387.652802,458.952087 388.062958,459.685852 
	C388.879791,459.477264 389.696625,459.268677 390.834320,459.079559 
	C391.089966,458.977081 391.161102,458.800354 391.771027,458.382874 
	C392.158386,457.627655 392.545746,456.872467 393.016144,455.602142 
	C393.022919,455.428345 393.029694,455.254517 393.183807,454.698914 
	C393.183807,454.698914 393.262115,454.297211 393.686310,454.212860 
	C393.686310,454.212860 394.002441,453.917664 394.577820,453.716583 
	C395.576965,452.969269 396.576111,452.221954 397.575256,451.474640 
	C397.307373,451.125946 397.039459,450.777252 396.771576,450.428528 
	C395.799347,451.175873 394.827087,451.923218 393.344360,452.784119 
	C393.062103,452.979065 392.779846,453.174042 391.865479,453.700928 
	C391.217926,454.452118 390.570374,455.203339 389.949615,455.881409 
	C389.949615,455.881409 389.881165,455.844299 389.289215,455.406281 
	C387.972321,456.289215 386.655396,457.172180 384.596497,458.066681 
	C382.390137,459.614227 380.183746,461.161743 377.248993,462.896484 
	C363.720520,468.483765 350.486267,474.991730 336.591431,479.432678 
	C317.889557,485.410034 298.542572,489.391541 278.803131,489.716644 
	C268.544708,489.885590 258.236786,488.542236 247.990753,487.494995 
	C239.916718,486.669769 231.711609,485.992828 223.895798,483.970520 
	C188.986771,474.937744 157.535492,459.462372 130.095001,435.433746 
	C64.508385,378.001984 42.067917,306.205383 57.503391,221.617508 
	C61.368740,200.435043 69.957298,180.724197 80.236313,161.755783 
	C90.345795,143.100204 104.096786,127.218773 117.950005,111.458778 
	C123.619865,105.008507 130.391464,99.382004 137.242645,94.139755 
	C167.668564,70.859032 201.774414,56.081944 239.845581,50.809380 
	C251.559570,49.187077 263.280823,47.617119 275.755829,46.299961 
	C280.876953,46.784504 285.998077,47.269047 291.991547,47.854366 
	C296.730225,48.445679 301.465607,49.065613 306.208771,49.618401 
	C309.460419,49.997349 312.994080,51.226681 315.916504,50.387093 
	C320.209045,49.153881 323.836151,50.278858 327.615875,51.442287 
	C332.113464,52.826675 336.530121,54.474079 341.574219,56.430458 
	C343.031403,57.674988 344.488586,58.919521 346.453247,60.663597 
	C347.351257,60.968216 348.249237,61.272835 349.573730,61.935642 
	C350.281555,62.148521 350.989380,62.361401 352.268524,62.939774 
	C354.182007,63.614273 356.095459,64.288773 358.416016,65.378319 
	C358.947083,65.555313 359.478119,65.732300 360.689819,66.156357 
	C361.778320,66.504349 362.866821,66.852341 364.131805,67.796967 
	C365.077759,67.918182 366.023712,68.039406 367.691895,67.998039 
	C369.190765,68.518806 370.689667,69.039574 371.827057,69.928558 
	C371.813995,70.277916 371.800964,70.627266 371.787903,70.976624 
	C371.923584,70.513557 372.059296,70.050499 372.662750,69.626511 
	C372.662750,69.626511 373.023682,69.926704 373.039368,70.713165 
	C374.361115,75.506378 378.286896,73.432487 381.934021,74.011330 
	C398.030762,85.764366 414.460876,97.097282 430.060333,109.476921 
	C436.312988,114.438972 440.788727,121.661934 445.978241,127.934425 
	C449.787994,132.539261 453.443054,137.272095 456.609131,142.383118 
	C458.344543,145.910950 460.079956,149.438782 462.064697,153.689346 
	C465.410767,158.733139 469.514221,163.440735 471.935394,168.895065 
	C476.164703,178.422745 479.456329,188.375168 482.957001,198.215042 
	C485.780334,206.151016 488.332581,214.183441 491.076019,222.385162 
	C491.437286,221.822891 491.757019,221.554977 491.747925,221.298767 
	C491.712952,220.316910 491.650879,219.323166 491.459686,218.361557 
	C486.509094,193.464935 478.224854,169.675858 465.044647,148.013992 
	C437.791931,103.223839 400.568817,69.596710 351.150269,50.736362 
	C310.607483,35.263405 268.749908,32.183105 225.693863,39.926044 
	C224.450180,40.037838 223.206512,40.149632 221.180328,40.267113 
	C220.156647,40.434971 219.132950,40.602833 218.087921,39.997154 
	C218.067474,39.740025 218.047012,39.482891 218.799149,38.984818 
	C260.605896,29.140001 301.738800,32.311546 342.557343,44.797310 
	C384.408081,57.598816 418.441437,82.161270 447.924622,113.702469 
	C463.149872,129.990479 474.477844,148.882889 483.879395,169.012070 
	C485.770508,173.061050 488.252747,176.833939 490.462463,180.734116 
	C490.729126,178.307114 490.375061,176.172089 489.534271,174.250000 
	C486.873993,168.168716 484.105286,162.131989 481.248230,156.140137 
	C456.163269,103.531288 414.567627,68.021225 362.870728,43.660633 
	C340.479340,33.109371 316.192963,28.208565 291.490387,26.167238 
	C244.041138,22.246222 199.117325,31.213646 156.776459,53.028641 
	C125.041809,69.379074 97.802910,91.474747 75.184959,118.929977 
	C66.682411,129.250946 59.737438,141.008194 53.121075,152.698517 
	C38.698448,178.181580 30.979763,205.975006 27.050922,234.843353 
	C26.174528,241.282959 26.501989,247.879959 26.117569,254.395187 
	C25.853094,258.877533 24.830374,263.363403 25.009346,267.812988 
	C25.321203,275.566254 26.203598,283.302856 27.021986,291.027832 
	C27.995787,300.219849 28.241695,309.619385 30.456573,318.517426 
	C33.431564,330.469055 37.725372,342.122375 41.933884,353.729401 
	C47.264477,368.431152 54.838768,382.009125 62.969337,395.382416 
	C72.822525,411.589111 84.536499,426.285248 97.737030,439.682312 
	C135.878906,478.392181 181.805099,502.018921 235.899979,509.245819 
	C270.918335,513.924133 305.427734,511.348999 339.069855,500.698578 
	C351.646912,496.716949 363.442566,490.327972 375.773315,485.492615 
	C392.447845,478.953888 406.282562,467.981140 420.169800,457.232574 
	C426.918518,452.009155 432.666382,445.348969 438.276642,438.830780 
	C447.576477,428.025879 456.717651,417.050018 465.287354,405.665649 
	C469.522522,400.039490 473.935516,394.630554 475.237061,386.715881 
	C476.544403,378.765778 481.709625,371.521393 484.573608,363.742920 
	C494.075562,337.935913 499.889679,311.410767 499.062317,283.713318 
	C499.015350,282.140503 498.737488,280.574585 498.567108,279.005463 
	C497.234833,280.242065 497.077576,281.341003 496.997498,282.445496 
	C496.312469,291.894318 496.246124,301.433502 494.864990,310.778717 
	C487.524261,360.448883 465.383301,402.469727 428.686523,436.761383 
	C427.466644,437.901245 425.582520,438.330322 423.737946,438.556915 
	C423.119965,438.975555 422.501953,439.394196 421.587585,440.487976 
	C421.624420,440.977631 421.661224,441.467316 421.619904,441.905731 
	C421.619904,441.905731 421.556183,441.974060 421.782990,441.683197 
	C421.805725,441.440063 421.750244,441.216522 420.627472,440.618317 
	C420.057800,441.399567 419.488129,442.180817 418.987762,442.979340 
	C418.987762,442.979340 418.965424,442.911530 418.157013,442.616791 
	C418.074219,443.068848 417.991425,443.520935 417.979858,443.980499 
M320.800385,170.778076 
	C328.561920,181.663895 332.667816,193.893600 332.835052,207.155563 
	C332.926208,214.385361 337.719116,211.566498 341.073425,212.120163 
	C345.423096,212.838135 346.292877,210.642990 346.263794,206.687958 
	C346.103149,184.856674 346.193756,163.023590 346.173126,141.191147 
	C346.171600,139.588486 345.971863,137.986008 345.868835,136.451355 
	C337.276459,135.950607 335.124146,138.171021 332.427460,149.968872 
	C330.710266,149.277161 328.973846,148.725662 327.371948,147.909973 
	C307.501678,137.791809 286.278625,134.060135 264.154266,133.855362 
	C240.424240,133.635727 218.262146,138.212769 198.687653,152.517563 
	C179.427277,166.592819 169.740585,192.114761 174.825806,215.142136 
	C178.949112,233.813660 190.198639,247.537750 206.068390,256.562042 
	C223.042465,266.214386 241.196396,273.835205 259.018372,281.940247 
	C275.108307,289.257629 291.082947,296.639801 304.423767,308.598175 
	C323.375031,325.585602 323.617615,357.375183 304.745453,374.492737 
	C291.198029,386.780670 274.960175,391.244263 256.919708,390.806702 
	C229.079849,390.131409 207.370987,379.078461 195.585754,353.168304 
	C190.699005,342.424652 188.231125,330.475494 185.539505,318.871338 
	C183.314850,309.280396 183.885803,309.143463 173.800613,309.793640 
	C173.333817,309.823700 172.880188,310.058228 172.134735,310.284058 
	C172.134735,339.848053 172.134735,369.414368 172.134735,399.879150 
	C175.201859,398.840393 178.021423,398.358582 180.334900,397.009125 
	C186.186813,393.595734 182.812363,386.948364 184.897446,381.872498 
	C186.064819,382.276154 187.055695,382.435120 187.847626,382.919403 
	C208.612991,395.617584 231.113541,401.859985 255.483871,402.730621 
	C282.511139,403.696167 307.645691,399.166901 330.098755,382.959167 
	C351.386230,367.592865 361.925446,335.979797 353.614563,311.209351 
	C347.803619,293.889862 336.389282,280.976318 320.951080,272.350525 
	C305.199738,263.549774 288.458862,256.490906 272.015137,248.966858 
	C255.992874,241.635681 239.598068,235.097382 225.791626,223.683411 
	C209.086319,209.872879 205.014542,185.702423 216.713165,167.355057 
	C223.665955,156.450745 234.176865,150.811935 246.565262,148.346634 
	C274.981934,142.691681 300.620819,146.507721 320.800385,170.778076 
M499.379852,202.953354 
	C496.607635,196.785080 496.981537,189.233734 491.401855,184.331680 
	C494.135925,193.180893 496.869965,202.030106 499.604004,210.879303 
	C499.946289,210.765015 500.288574,210.650711 500.630859,210.536407 
	C500.322205,208.247833 500.013519,205.959244 499.379852,202.953354 
z"/>
<path fill="#FAFAFB" opacity="1.000000" stroke="none" 
	d="
M226.055161,39.420349 
	C268.749908,32.183105 310.607483,35.263405 351.150269,50.736362 
	C400.568817,69.596710 437.791931,103.223839 465.044647,148.013992 
	C478.224854,169.675858 486.509094,193.464935 491.459686,218.361557 
	C491.650879,219.323166 491.712952,220.316910 491.747925,221.298767 
	C491.757019,221.554977 491.437286,221.822891 491.076019,222.385162 
	C488.332581,214.183441 485.780334,206.151016 482.957001,198.215042 
	C479.456329,188.375168 476.164703,178.422745 471.935394,168.895065 
	C469.514221,163.440735 465.410767,158.733139 462.286011,153.126617 
	C463.624664,147.567688 460.114807,144.899185 457.167053,141.947906 
	C453.443054,137.272095 449.787994,132.539261 445.978241,127.934425 
	C440.788727,121.661934 436.312988,114.438972 430.060333,109.476921 
	C414.460876,97.097282 398.030762,85.764366 381.416107,73.625107 
	C378.273346,72.134827 375.648529,71.030762 373.023682,69.926697 
	C373.023682,69.926704 372.662750,69.626511 372.398468,69.636047 
	C372.134186,69.645576 372.188538,69.560341 372.188538,69.560341 
	C370.689667,69.039574 369.190765,68.518806 367.155457,67.770248 
	C365.731110,67.428413 364.843231,67.314369 363.955322,67.200333 
	C362.866821,66.852341 361.778320,66.504349 360.348785,65.675980 
	C360.029053,64.482323 360.050354,63.769039 360.179810,62.988297 
	C360.287903,62.920834 360.271423,62.568447 360.271423,62.568447 
	C360.271423,62.568447 359.953033,62.940327 359.712463,62.762047 
	C358.584869,61.901752 357.697876,61.219742 355.919647,59.852444 
	C356.945587,62.362137 357.477264,63.662708 358.008911,64.963272 
	C356.095459,64.288773 354.182007,63.614273 352.150696,62.478321 
	C352.993164,61.473667 353.953461,60.930462 355.150085,60.253578 
	C349.794006,57.306030 349.794006,57.306030 349.147247,61.577450 
	C348.249237,61.272835 347.351257,60.968216 346.350830,60.167831 
	C346.079071,58.678253 346.179688,57.014229 345.689667,56.816872 
	C344.245911,56.235451 342.568054,56.235222 340.981842,56.007523 
	C336.530121,54.474079 332.113464,52.826675 327.615875,51.442287 
	C323.836151,50.278858 320.209045,49.153881 315.916504,50.387093 
	C312.994080,51.226681 309.460419,49.997349 306.208771,49.618401 
	C301.465607,49.065613 296.730225,48.445679 291.587708,47.484047 
	C291.779297,46.526173 292.374756,45.938618 292.914429,45.406132 
	C287.577332,44.731415 282.259888,43.973682 276.916870,43.509933 
	C276.354462,43.461121 275.641724,45.143818 274.998749,46.023186 
	C263.280823,47.617119 251.559570,49.187077 239.845581,50.809380 
	C201.774414,56.081944 167.668564,70.859032 137.242645,94.139755 
	C130.391464,99.382004 123.619865,105.008507 117.950005,111.458778 
	C104.096786,127.218773 90.345795,143.100204 80.236313,161.755783 
	C69.957298,180.724197 61.368740,200.435043 57.503391,221.617508 
	C42.067917,306.205383 64.508385,378.001984 130.095001,435.433746 
	C157.535492,459.462372 188.986771,474.937744 223.895798,483.970520 
	C231.711609,485.992828 239.916718,486.669769 247.990753,487.494995 
	C258.236786,488.542236 268.544708,489.885590 278.803131,489.716644 
	C298.542572,489.391541 317.889557,485.410034 336.591431,479.432678 
	C350.486267,474.991730 363.720520,468.483765 377.966736,462.879517 
	C379.165497,462.894958 379.646515,462.927368 380.127563,462.959747 
	C379.631592,463.911285 379.135620,464.862793 378.199188,465.605103 
	C377.161530,465.671143 376.564301,465.946411 375.967102,466.221680 
	C375.639282,466.283356 375.311432,466.345062 374.647156,466.574829 
	C374.310699,466.742920 374.062164,466.956207 374.062134,466.956177 
	C372.059387,468.440247 370.224396,470.261627 368.027161,471.354706 
	C351.472198,479.590302 334.115784,485.576904 316.059692,489.573181 
	C313.056488,490.237885 310.146423,491.323517 307.193329,492.214630 
	C307.287476,492.609436 307.381622,493.004242 307.475800,493.399048 
	C311.732666,492.486115 316.049591,491.787262 320.233612,490.614380 
	C328.212402,488.377777 336.121613,485.891174 344.048065,483.470306 
	C352.107117,481.008972 360.369263,479.030792 368.133545,475.844604 
	C374.176300,473.364838 379.591400,469.355530 385.664124,466.313904 
	C386.572021,467.215240 387.101257,467.828674 387.630524,468.442139 
	C388.094849,467.017395 388.559174,465.592682 389.023468,464.167938 
	C389.585602,463.817261 390.147736,463.466583 391.090393,463.477295 
	C391.470856,464.356415 391.470856,464.874176 391.470856,465.391937 
	C391.746063,465.362701 392.021271,465.333435 392.296448,465.304199 
	C392.139740,464.620911 391.983032,463.937653 391.826294,463.254395 
	C391.992462,462.849030 392.158661,462.443634 392.879486,462.183777 
	C394.739410,462.447021 396.044678,462.564758 397.349945,462.682495 
	C397.020874,461.707520 396.691833,460.732513 396.362762,459.757538 
	C397.237823,459.128479 398.112885,458.499390 399.377258,458.008911 
	C401.013611,458.318085 402.260651,458.488678 404.509827,458.796387 
	C403.095795,457.275238 402.562469,456.701508 402.029114,456.127777 
	C402.190186,456.078003 402.351257,456.028259 403.160065,456.046448 
	C405.187836,455.371399 406.567902,454.628387 407.947937,453.885345 
	C409.398926,451.903625 410.849915,449.921906 412.561462,448.054718 
	C412.861877,448.397339 412.901764,448.625488 412.909241,449.211792 
	C413.270538,449.407715 413.664337,449.245453 414.070404,449.124359 
	C414.082672,449.165527 414.158661,449.205627 414.504639,449.331848 
	C417.133087,446.957703 419.415558,444.457336 421.698029,441.956970 
	C421.661224,441.467316 421.624420,440.977631 422.051331,440.236389 
	C423.012726,439.686768 423.510376,439.388733 424.008026,439.090698 
	C425.582520,438.330322 427.466644,437.901245 428.686523,436.761383 
	C465.383301,402.469727 487.524261,360.448883 494.864990,310.778717 
	C496.246124,301.433502 496.312469,291.894318 496.997498,282.445496 
	C497.077576,281.341003 497.234833,280.242065 498.567108,279.005463 
	C498.737488,280.574585 499.015350,282.140503 499.062317,283.713318 
	C499.889679,311.410767 494.075562,337.935913 484.573608,363.742920 
	C481.709625,371.521393 476.544403,378.765778 475.237061,386.715881 
	C473.935516,394.630554 469.522522,400.039490 465.287354,405.665649 
	C456.717651,417.050018 447.576477,428.025879 438.276642,438.830780 
	C432.666382,445.348969 426.918518,452.009155 420.169800,457.232574 
	C406.282562,467.981140 392.447845,478.953888 375.773315,485.492615 
	C363.442566,490.327972 351.646912,496.716949 339.069855,500.698578 
	C305.427734,511.348999 270.918335,513.924133 235.899979,509.245819 
	C181.805099,502.018921 135.878906,478.392181 97.737030,439.682312 
	C84.536499,426.285248 72.822525,411.589111 62.969337,395.382416 
	C54.838768,382.009125 47.264477,368.431152 41.933884,353.729401 
	C37.725372,342.122375 33.431564,330.469055 30.456573,318.517426 
	C28.241695,309.619385 27.995787,300.219849 27.021986,291.027832 
	C26.203598,283.302856 25.321203,275.566254 25.009346,267.812988 
	C24.830374,263.363403 25.853094,258.877533 26.117569,254.395187 
	C26.501989,247.879959 26.174528,241.282959 27.050922,234.843353 
	C30.979763,205.975006 38.698448,178.181580 53.121075,152.698517 
	C59.737438,141.008194 66.682411,129.250946 75.184959,118.929977 
	C97.802910,91.474747 125.041809,69.379074 156.776459,53.028641 
	C199.117325,31.213646 244.041138,22.246222 291.490387,26.167238 
	C316.192963,28.208565 340.479340,33.109371 362.870728,43.660633 
	C414.567627,68.021225 456.163269,103.531288 481.248230,156.140137 
	C484.105286,162.131989 486.873993,168.168716 489.534271,174.250000 
	C490.375061,176.172089 490.729126,178.307114 490.462463,180.734116 
	C488.252747,176.833939 485.770508,173.061050 483.879395,169.012070 
	C474.477844,148.882889 463.149872,129.990479 447.924622,113.702469 
	C418.441437,82.161270 384.408081,57.598816 342.557343,44.797310 
	C301.738800,32.311546 260.605896,29.140001 218.022598,39.093807 
	C209.502777,41.519661 201.759521,43.836521 193.652191,46.182617 
	C189.003677,47.946651 184.691330,49.617378 180.455246,51.463135 
	C179.447235,51.902348 178.694290,52.926964 177.824036,53.682312 
	C178.634811,54.331581 179.438553,55.489094 180.258179,55.500458 
	C181.264725,55.514416 182.284546,54.570988 183.614792,53.957596 
	C184.243912,53.133156 184.556854,52.392536 185.117599,51.466450 
	C185.561249,51.345909 185.757111,51.410835 185.946686,51.798603 
	C186.067795,52.762226 186.195175,53.403004 186.322556,54.043781 
	C186.684814,53.852051 187.047058,53.660320 187.409302,53.468594 
	C186.921478,52.802670 186.433655,52.136745 186.237213,51.203728 
	C188.300919,50.388386 190.073273,49.840134 191.658524,49.615189 
	C191.433823,50.505924 191.396210,51.073357 191.358597,51.640789 
	C191.550873,51.643032 191.743149,51.645279 191.935425,51.647526 
	C191.935425,50.875019 191.935425,50.102509 191.995758,49.052933 
	C192.713303,48.416477 193.370529,48.057095 194.376648,47.621658 
	C195.361069,47.580063 195.996613,47.614513 196.526169,47.954865 
	C195.447357,48.635765 194.474503,49.010757 193.501648,49.385754 
	C194.056808,50.080299 194.611969,50.774845 195.167130,51.469391 
	C197.118988,50.368809 199.070862,49.268227 201.439331,48.109131 
	C205.231232,47.839039 208.620392,47.956612 210.778946,44.374447 
	C211.275803,43.549896 213.381378,43.694729 214.552582,43.650986 
	C214.352585,44.218330 214.346649,44.528145 214.340698,44.837963 
	C214.569092,44.364288 214.797470,43.890614 215.112000,43.022919 
	C215.688156,42.547077 216.178162,42.465267 216.650085,42.747387 
	C216.852509,43.430134 217.073029,43.748951 217.293549,44.067768 
	C217.406128,43.999866 217.518707,43.931969 217.631302,43.864071 
	C217.345963,43.339149 217.060638,42.814228 216.562103,42.075729 
	C216.935699,41.498329 217.522476,41.134510 218.109268,40.770691 
	C219.132950,40.602833 220.156647,40.434971 221.514893,40.580864 
	C221.741043,41.819969 221.632660,42.745319 221.524261,43.670670 
	C221.972656,43.887409 222.421051,44.104149 222.869446,44.320889 
	C223.931351,42.687374 224.993256,41.053864 226.055161,39.420349 
M157.873062,64.878044 
	C157.251251,64.536964 156.629456,64.195892 156.007645,63.854820 
	C155.764160,64.741623 155.520691,65.628433 154.734055,66.885017 
	C143.391144,74.845963 132.048218,82.806908 120.705307,90.767860 
	C121.056793,91.306946 121.408279,91.846031 121.759758,92.385117 
	C122.952133,91.716850 124.187103,91.114067 125.330383,90.370338 
	C139.331039,81.262604 153.326035,72.146095 167.296021,62.991421 
	C168.589340,62.143894 169.701431,61.019814 171.455856,60.185059 
	C171.714401,58.820385 171.972946,57.455708 172.231506,56.091034 
	C171.878403,56.070263 171.525299,56.049496 171.172195,56.028725 
	C171.101501,57.381504 171.030807,58.734280 170.498245,59.943817 
	C170.498245,59.943817 170.038483,59.793934 169.998718,59.135010 
	C169.922928,58.393673 169.847137,57.652340 169.771347,56.911007 
	C169.236145,56.794193 168.700943,56.677380 168.165726,56.560570 
	C167.863449,57.968040 167.561157,59.375515 166.455200,61.226349 
	C166.188416,61.376118 165.921631,61.525883 165.177582,60.818817 
	C163.683823,60.973705 162.190079,61.128593 160.696320,61.283482 
	C161.297897,61.914265 161.899475,62.545052 162.031372,63.727119 
	C160.716934,64.323746 159.402481,64.920380 157.873062,64.878044 
M285.772217,496.614716 
	C275.030518,495.889374 264.288788,495.164032 253.547073,494.438690 
	C253.518417,495.235413 253.489761,496.032104 253.461105,496.828827 
	C264.010284,496.828827 274.559448,496.828827 285.772217,496.614716 
M173.524673,55.598900 
	C173.466339,55.832542 173.408005,56.066185 173.349686,56.299835 
	C173.493378,56.150028 173.637085,56.000221 173.524673,55.598900 
M174.462769,59.413929 
	C174.522202,59.173798 174.581635,58.933666 174.641052,58.693542 
	C174.491791,58.847980 174.342529,59.002419 174.462769,59.413929 
M375.669678,474.524048 
	C375.669678,474.524048 375.393921,474.391174 375.393921,474.391174 
	C375.393921,474.391174 375.449860,474.671265 375.669678,474.524048 
z"/>
<path fill="#FCFCFD" opacity="1.000000" stroke="none" 
	d="
M320.571655,170.500702 
	C300.620819,146.507721 274.981934,142.691681 246.565262,148.346634 
	C234.176865,150.811935 223.665955,156.450745 216.713165,167.355057 
	C205.014542,185.702423 209.086319,209.872879 225.791626,223.683411 
	C239.598068,235.097382 255.992874,241.635681 272.015137,248.966858 
	C288.458862,256.490906 305.199738,263.549774 320.951080,272.350525 
	C336.389282,280.976318 347.803619,293.889862 353.614563,311.209351 
	C361.925446,335.979797 351.386230,367.592865 330.098755,382.959167 
	C307.645691,399.166901 282.511139,403.696167 255.483871,402.730621 
	C231.113541,401.859985 208.612991,395.617584 187.847626,382.919403 
	C187.055695,382.435120 186.064819,382.276154 184.897446,381.872498 
	C182.812363,386.948364 186.186813,393.595734 180.334900,397.009125 
	C178.021423,398.358582 175.201859,398.840393 172.134735,399.879150 
	C172.134735,369.414368 172.134735,339.848053 172.134735,310.284058 
	C172.880188,310.058228 173.333817,309.823700 173.800613,309.793640 
	C183.885803,309.143463 183.314850,309.280396 185.539505,318.871338 
	C188.231125,330.475494 190.699005,342.424652 195.585754,353.168304 
	C207.370987,379.078461 229.079849,390.131409 256.919708,390.806702 
	C274.960175,391.244263 291.198029,386.780670 304.745453,374.492737 
	C323.617615,357.375183 323.375031,325.585602 304.423767,308.598175 
	C291.082947,296.639801 275.108307,289.257629 259.018372,281.940247 
	C241.196396,273.835205 223.042465,266.214386 206.068390,256.562042 
	C190.198639,247.537750 178.949112,233.813660 174.825806,215.142136 
	C169.740585,192.114761 179.427277,166.592819 198.687653,152.517563 
	C218.262146,138.212769 240.424240,133.635727 264.154266,133.855362 
	C286.278625,134.060135 307.501678,137.791809 327.371948,147.909973 
	C328.973846,148.725662 330.710266,149.277161 332.427460,149.968872 
	C335.124146,138.171021 337.276459,135.950607 345.868835,136.451355 
	C345.971863,137.986008 346.171600,139.588486 346.173126,141.191147 
	C346.193756,163.023590 346.103149,184.856674 346.263794,206.687958 
	C346.292877,210.642990 345.423096,212.838135 341.073425,212.120163 
	C337.719116,211.566498 332.926208,214.385361 332.835052,207.155563 
	C332.667816,193.893600 328.561920,181.663895 320.571655,170.500702 
z"/>
<path fill="#301F45" opacity="1.000000" stroke="none" 
	d="
M196.632141,47.648964 
	C195.996613,47.614513 195.361069,47.580063 194.388519,47.364338 
	C194.039749,46.839836 194.028000,46.496609 194.016251,46.153381 
	C201.759521,43.836521 209.502777,41.519661 217.636292,39.214279 
	C218.047012,39.482891 218.067474,39.740025 218.098602,40.383923 
	C217.522476,41.134510 216.935699,41.498329 216.532501,42.100334 
	C216.716095,42.338516 216.668167,42.383453 216.668167,42.383453 
	C216.178162,42.465267 215.688156,42.547077 215.033249,43.040565 
	C214.868347,43.452244 214.746628,43.393459 214.746628,43.393456 
	C213.381378,43.694729 211.275803,43.549896 210.778946,44.374447 
	C208.620392,47.956612 205.231232,47.839039 201.165344,48.024342 
	C199.641556,47.622135 198.808395,47.246201 197.667389,46.852364 
	C197.138535,47.109859 196.917526,47.385258 196.681335,47.646812 
	C196.666153,47.632977 196.632141,47.648960 196.632141,47.648964 
z"/>
<path fill="#D9D6DD" opacity="1.000000" stroke="none" 
	d="
M499.542358,203.312012 
	C500.013519,205.959244 500.322205,208.247833 500.630859,210.536407 
	C500.288574,210.650711 499.946289,210.765015 499.604004,210.879303 
	C496.869965,202.030106 494.135925,193.180893 491.401855,184.331680 
	C496.981537,189.233734 496.607635,196.785080 499.542358,203.312012 
z"/>
<path fill="#ACA5B4" opacity="1.000000" stroke="none" 
	d="
M275.377289,46.161575 
	C275.641724,45.143818 276.354462,43.461121 276.916870,43.509933 
	C282.259888,43.973682 287.577332,44.731415 292.914429,45.406132 
	C292.374756,45.938618 291.779297,46.526173 291.151520,47.433659 
	C285.998077,47.269047 280.876953,46.784504 275.377289,46.161575 
z"/>
<path fill="#3E2F51" opacity="1.000000" stroke="none" 
	d="
M456.888092,142.165512 
	C460.114807,144.899185 463.624664,147.567688 462.161316,152.765259 
	C460.079956,149.438782 458.344543,145.910950 456.888092,142.165512 
z"/>
<path fill="#2A1940" opacity="1.000000" stroke="none" 
	d="
M380.395508,462.891418 
	C379.646515,462.927368 379.165497,462.894958 378.330902,462.785919 
	C380.183746,461.161743 382.390137,459.614227 385.134338,458.281891 
	C385.533813,458.804932 385.395447,459.112732 385.257080,459.420532 
	C384.481903,461.575409 383.994415,464.118652 380.395508,462.891418 
z"/>
<path fill="#443557" opacity="1.000000" stroke="none" 
	d="
M373.031525,70.319931 
	C375.648529,71.030762 378.273346,72.134827 381.085815,73.537209 
	C378.286896,73.432487 374.361115,75.506378 373.031525,70.319931 
z"/>
<path fill="#EAE8EC" opacity="1.000000" stroke="none" 
	d="
M341.278015,56.218990 
	C342.568054,56.235222 344.245911,56.235451 345.689667,56.816872 
	C346.179688,57.014229 346.079071,58.678253 346.097076,59.918060 
	C344.488586,58.919521 343.031403,57.674988 341.278015,56.218990 
z"/>
<path fill="#3F3053" opacity="1.000000" stroke="none" 
	d="
M421.658966,441.931335 
	C419.415558,444.457336 417.133087,446.957703 414.378784,448.935852 
	C414.250336,447.587708 414.593719,446.761871 414.937073,445.936005 
	C414.937073,445.936005 414.998779,445.997559 415.215820,446.294250 
	C415.958099,446.029144 416.483276,445.467285 417.008484,444.905457 
	C417.008453,444.905426 416.997589,444.995544 417.261810,444.974609 
	C417.675140,444.605499 417.824249,444.257324 417.973328,443.909180 
	C417.973358,443.909180 417.979858,443.980499 418.264648,443.984619 
	C418.688110,443.629669 418.826752,443.270599 418.965424,442.911530 
	C418.965424,442.911530 418.987762,442.979340 419.298950,443.000977 
	C419.981415,442.746674 420.352722,442.470703 420.936676,442.157043 
	C421.149353,442.119415 421.556183,441.974060 421.556183,441.974060 
	C421.556183,441.974060 421.619904,441.905731 421.658966,441.931335 
z"/>
<path fill="#EAE8EC" opacity="1.000000" stroke="none" 
	d="
M349.360474,61.756546 
	C349.794006,57.306030 349.794006,57.306030 355.150085,60.253578 
	C353.953461,60.930462 352.993164,61.473667 351.865051,62.295574 
	C350.989380,62.361401 350.281555,62.148521 349.360474,61.756546 
z"/>
<path fill="#E4E1E6" opacity="1.000000" stroke="none" 
	d="
M396.065735,459.809814 
	C396.691833,460.732513 397.020874,461.707520 397.349945,462.682495 
	C396.044678,462.564758 394.739410,462.447021 393.159180,462.131470 
	C393.845673,461.243103 394.807159,460.552582 396.065735,459.809814 
z"/>
<path fill="#E1DFE4" opacity="1.000000" stroke="none" 
	d="
M225.874512,39.673195 
	C224.993256,41.053864 223.931351,42.687374 222.869446,44.320889 
	C222.421051,44.104149 221.972656,43.887409 221.524261,43.670670 
	C221.632660,42.745319 221.741043,41.819969 221.906128,40.578018 
	C223.206512,40.149632 224.450180,40.037838 225.874512,39.673195 
z"/>
<path fill="#CFCBD4" opacity="1.000000" stroke="none" 
	d="
M393.854828,452.670593 
	C394.827087,451.923218 395.799347,451.175873 396.771576,450.428528 
	C397.039459,450.777252 397.307373,451.125946 397.575256,451.474640 
	C396.576111,452.221954 395.576965,452.969269 394.262146,453.504303 
	C393.915894,453.084869 393.885376,452.877716 393.854828,452.670593 
z"/>
<path fill="#EAE8EC" opacity="1.000000" stroke="none" 
	d="
M358.212463,65.170799 
	C357.477264,63.662708 356.945587,62.362137 355.919647,59.852444 
	C357.697876,61.219742 358.584869,61.901752 359.740479,62.792587 
	C360.009094,63.001408 360.071686,63.055756 360.071686,63.055756 
	C360.050354,63.769039 360.029053,64.482323 360.008484,65.552444 
	C359.478119,65.732300 358.947083,65.555313 358.212463,65.170799 
z"/>
<path fill="#E4E1E6" opacity="1.000000" stroke="none" 
	d="
M388.720459,464.191162 
	C388.559174,465.592682 388.094849,467.017395 387.630524,468.442139 
	C387.101257,467.828674 386.572021,467.215240 386.009155,466.252899 
	C386.789520,465.340820 387.603455,464.777588 388.720459,464.191162 
z"/>
<path fill="#E4E1E6" opacity="1.000000" stroke="none" 
	d="
M401.790436,456.063568 
	C402.562469,456.701508 403.095795,457.275238 404.509827,458.796387 
	C402.260651,458.488678 401.013611,458.318085 399.738464,457.819641 
	C400.324158,456.994354 400.937958,456.496857 401.790436,456.063568 
z"/>
<path fill="#C7C3CC" opacity="1.000000" stroke="none" 
	d="
M385.327515,459.244476 
	C385.395447,459.112732 385.533813,458.804932 385.505341,458.276123 
	C386.655396,457.172180 387.972321,456.289215 389.671661,455.942596 
	C389.675507,456.975281 389.296936,457.471680 388.951660,457.980408 
	C388.984985,457.992706 389.009491,457.926025 388.624390,457.800751 
	C387.616791,458.012207 386.994293,458.348938 386.371796,458.685669 
	C386.047180,458.813263 385.722565,458.940826 385.327515,459.244476 
z"/>
<path fill="#E4E1E6" opacity="1.000000" stroke="none" 
	d="
M407.654266,453.960205 
	C406.567902,454.628387 405.187836,455.371399 403.412537,456.060974 
	C404.465027,455.350006 405.912811,454.692535 407.654266,453.960205 
z"/>
<path fill="#443557" opacity="1.000000" stroke="none" 
	d="
M364.043579,67.498650 
	C364.843231,67.314369 365.731110,67.428413 366.794342,67.851547 
	C366.023712,68.039406 365.077759,67.918182 364.043579,67.498650 
z"/>
<path fill="#D8D5DC" opacity="1.000000" stroke="none" 
	d="
M414.660522,445.932892 
	C414.593719,446.761871 414.250336,447.587708 414.032806,448.809601 
	C414.158661,449.205627 414.082672,449.165527 413.819122,448.931427 
	C413.350952,448.749390 413.146301,448.801483 412.941681,448.853607 
	C412.901764,448.625488 412.861877,448.397339 412.841675,447.822388 
	C413.368866,446.960297 413.876434,446.445038 414.660522,445.932892 
z"/>
<path fill="#39294D" opacity="1.000000" stroke="none" 
	d="
M388.918335,457.968048 
	C389.296936,457.471680 389.675507,456.975281 389.967651,456.161621 
	C389.881165,455.844299 389.949615,455.881409 390.283508,456.004517 
	C391.085419,456.062012 391.553406,455.996368 391.936676,456.297211 
	C391.583862,457.292267 391.315796,457.920807 391.047699,458.549377 
	C391.161102,458.800354 391.089966,458.977081 390.661133,458.667725 
	C389.964752,458.159943 389.441559,458.063995 388.918335,457.968048 
z"/>
<path fill="#C7C3CC" opacity="1.000000" stroke="none" 
	d="
M392.021423,455.930725 
	C391.553406,455.996368 391.085419,456.062012 390.270142,456.041107 
	C390.570374,455.203339 391.217926,454.452118 392.367096,453.772339 
	C392.999817,453.994873 393.130951,454.146057 393.262115,454.297211 
	C393.262115,454.297211 393.183807,454.698914 392.828064,454.902344 
	C392.292267,455.399017 392.112244,455.692322 391.967072,455.992249 
	C392.001892,455.998901 392.021423,455.930756 392.021423,455.930725 
z"/>
<path fill="#B6B0BE" opacity="1.000000" stroke="none" 
	d="
M376.046509,466.527405 
	C376.564301,465.946411 377.161530,465.671143 377.873993,465.665985 
	C377.368134,466.235138 376.747040,466.534149 376.046509,466.527405 
z"/>
<path fill="#71667F" opacity="1.000000" stroke="none" 
	d="
M423.872986,438.823792 
	C423.510376,439.388733 423.012726,439.686768 422.199524,439.898834 
	C422.501953,439.394196 423.119965,438.975555 423.872986,438.823792 
z"/>
<path fill="#E4E1E6" opacity="1.000000" stroke="none" 
	d="
M391.784454,463.273071 
	C391.983032,463.937653 392.139740,464.620911 392.296448,465.304199 
	C392.021271,465.333435 391.746063,465.362701 391.470856,465.391937 
	C391.470856,464.874176 391.470856,464.356415 391.585480,463.524597 
	C391.700104,463.210571 391.742615,463.291748 391.784454,463.273071 
z"/>
<path fill="#A7A0B0" opacity="1.000000" stroke="none" 
	d="
M388.951660,457.980347 
	C389.441559,458.063995 389.964752,458.159943 390.500732,458.657990 
	C389.696625,459.268677 388.879791,459.477264 388.286316,459.283081 
	C388.676239,458.562225 388.842865,458.244141 389.009491,457.926025 
	C389.009491,457.926025 388.984985,457.992706 388.951660,457.980347 
z"/>
<path fill="#A7A0B0" opacity="1.000000" stroke="none" 
	d="
M391.409363,458.466125 
	C391.315796,457.920807 391.583862,457.292267 391.936676,456.297241 
	C392.021423,455.930756 392.001892,455.998901 392.212097,456.064514 
	C392.592621,456.125854 392.762878,456.121582 392.933105,456.117279 
	C392.545746,456.872467 392.158386,457.627655 391.409363,458.466125 
z"/>
<path fill="#B6B0BE" opacity="1.000000" stroke="none" 
	d="
M374.237427,467.127686 
	C374.062164,466.956207 374.310699,466.742920 374.465271,466.796997 
	C374.475494,467.141327 374.303345,467.422852 374.206818,467.728210 
	C374.183563,467.801758 374.410950,467.954529 374.523102,468.070862 
	C374.486298,467.813629 374.449493,467.556366 374.237427,467.127686 
z"/>
<path fill="#443557" opacity="1.000000" stroke="none" 
	d="
M372.164581,69.616501 
	C372.059296,70.050499 371.923584,70.513557 371.787903,70.976624 
	C371.800964,70.627266 371.813995,70.277916 372.007812,69.744446 
	C372.188538,69.560341 372.134186,69.645576 372.164581,69.616501 
z"/>
<path fill="#2A1940" opacity="1.000000" stroke="none" 
	d="
M388.624390,457.800751 
	C388.842865,458.244141 388.676239,458.562225 388.211243,458.931183 
	C387.652802,458.952087 387.392792,458.922180 386.752289,458.788971 
	C386.994293,458.348938 387.616791,458.012207 388.624390,457.800751 
z"/>
<path fill="#D8D5DC" opacity="1.000000" stroke="none" 
	d="
M420.723999,442.194702 
	C420.352722,442.470703 419.981415,442.746674 419.264282,442.992371 
	C419.488129,442.180817 420.057800,441.399567 420.864807,441.088989 
	C420.976105,441.771332 420.850067,441.983002 420.723999,442.194702 
z"/>
<path fill="#D8D5DC" opacity="1.000000" stroke="none" 
	d="
M416.747894,444.598206 
	C416.483276,445.467285 415.958099,446.029144 415.188477,446.260315 
	C415.458466,445.383392 415.972870,444.837189 416.747894,444.598206 
z"/>
<path fill="#71667F" opacity="1.000000" stroke="none" 
	d="
M420.936676,442.157043 
	C420.850067,441.983002 420.976105,441.771332 421.359375,441.286102 
	C421.750244,441.216522 421.805725,441.440063 421.669586,441.828613 
	C421.556183,441.974060 421.149353,442.119415 420.936676,442.157043 
z"/>
<path fill="#39294D" opacity="1.000000" stroke="none" 
	d="
M392.974609,455.859711 
	C392.762878,456.121582 392.592621,456.125854 392.177307,456.057892 
	C392.112244,455.692322 392.292267,455.399017 392.754364,455.093231 
	C393.029694,455.254517 393.022919,455.428345 392.974609,455.859711 
z"/>
<path fill="#C7C3CC" opacity="1.000000" stroke="none" 
	d="
M393.599609,452.727356 
	C393.885376,452.877716 393.915894,453.084869 393.974426,453.604858 
	C394.002441,453.917664 393.686310,454.212860 393.474213,454.255035 
	C393.130951,454.146057 392.999817,453.994873 392.683167,453.606384 
	C392.779846,453.174042 393.062103,452.979065 393.599609,452.727356 
z"/>
<path fill="#D8D5DC" opacity="1.000000" stroke="none" 
	d="
M417.558777,443.725952 
	C417.824249,444.257324 417.675140,444.605499 417.216797,444.968750 
	C416.986481,444.503448 417.065369,444.023102 417.558777,443.725952 
z"/>
<path fill="#D8D5DC" opacity="1.000000" stroke="none" 
	d="
M418.561218,442.764160 
	C418.826752,443.270599 418.688110,443.629669 418.229065,443.980865 
	C417.991425,443.520935 418.074219,443.068848 418.561218,442.764160 
z"/>
<path fill="#39294D" opacity="1.000000" stroke="none" 
	d="
M170.897690,60.024147 
	C169.701431,61.019814 168.589340,62.143894 167.296021,62.991421 
	C153.326035,72.146095 139.331039,81.262604 125.330383,90.370338 
	C124.187103,91.114067 122.952133,91.716850 121.759758,92.385117 
	C121.408279,91.846031 121.056793,91.306946 120.705307,90.767860 
	C132.048218,82.806908 143.391144,74.845963 155.300079,66.636917 
	C156.606750,66.098213 157.347397,65.807610 158.088043,65.517006 
	C159.402481,64.920380 160.716934,64.323746 162.535065,63.425835 
	C163.910767,62.641582 164.782806,62.158615 165.654846,61.675652 
	C165.921631,61.525883 166.188416,61.376118 167.151184,60.967068 
	C168.577621,60.403172 169.308044,60.098553 170.038483,59.793934 
	C170.038483,59.793934 170.498245,59.943817 170.736359,59.977142 
	C170.974457,60.010464 170.897690,60.024151 170.897690,60.024147 
z"/>
<path fill="#71667F" opacity="1.000000" stroke="none" 
	d="
M285.440430,496.721771 
	C274.559448,496.828827 264.010284,496.828827 253.461105,496.828827 
	C253.489761,496.032104 253.518417,495.235413 253.547073,494.438690 
	C264.288788,495.164032 275.030518,495.889374 285.440430,496.721771 
z"/>
<path fill="#403153" opacity="1.000000" stroke="none" 
	d="
M193.652191,46.182617 
	C194.028000,46.496609 194.039749,46.839836 194.039612,47.440384 
	C193.370529,48.057095 192.713303,48.416477 191.962753,49.068401 
	C191.869415,49.360939 191.845612,49.291885 191.845612,49.291885 
	C190.073273,49.840134 188.300919,50.388386 186.279968,51.233669 
	C186.031342,51.530704 185.952972,51.475758 185.952972,51.475758 
	C185.757111,51.410835 185.561249,51.345909 184.715179,51.566086 
	C183.809525,52.581261 183.554077,53.311333 183.298630,54.041412 
	C182.284546,54.570988 181.264725,55.514416 180.258179,55.500458 
	C179.438553,55.489094 178.634811,54.331581 177.824036,53.682312 
	C178.694290,52.926964 179.447235,51.902348 180.455246,51.463135 
	C184.691330,49.617378 189.003677,47.946651 193.652191,46.182617 
z"/>
<path fill="#E2E0E5" opacity="1.000000" stroke="none" 
	d="
M197.975235,46.870270 
	C198.808395,47.246201 199.641556,47.622135 200.748718,48.082855 
	C199.070862,49.268227 197.118988,50.368809 195.167130,51.469391 
	C194.611969,50.774845 194.056808,50.080299 193.501648,49.385754 
	C194.474503,49.010757 195.447357,48.635765 196.526169,47.954865 
	C196.632141,47.648960 196.666153,47.632977 196.944427,47.617271 
	C197.473541,47.357800 197.724396,47.114033 197.975235,46.870270 
z"/>
<path fill="#DDDAE0" opacity="1.000000" stroke="none" 
	d="
M165.416214,61.247231 
	C164.782806,62.158615 163.910767,62.641582 162.769897,63.150192 
	C161.899475,62.545052 161.297897,61.914265 160.696320,61.283482 
	C162.190079,61.128593 163.683823,60.973705 165.416214,61.247231 
z"/>
<path fill="#DDDAE0" opacity="1.000000" stroke="none" 
	d="
M170.018600,59.464470 
	C169.308044,60.098553 168.577621,60.403172 167.553040,60.745388 
	C167.561157,59.375515 167.863449,57.968040 168.165726,56.560570 
	C168.700943,56.677380 169.236145,56.794193 169.771347,56.911007 
	C169.847137,57.652340 169.922928,58.393673 170.018600,59.464470 
z"/>
<path fill="#DDDAE0" opacity="1.000000" stroke="none" 
	d="
M157.980560,65.197525 
	C157.347397,65.807610 156.606750,66.098213 155.571655,66.452026 
	C155.520691,65.628433 155.764160,64.741623 156.007645,63.854820 
	C156.629456,64.195892 157.251251,64.536964 157.980560,65.197525 
z"/>
<path fill="#DDDAE0" opacity="1.000000" stroke="none" 
	d="
M170.967285,60.048759 
	C171.030807,58.734280 171.101501,57.381504 171.172195,56.028725 
	C171.525299,56.049496 171.878403,56.070263 172.231506,56.091034 
	C171.972946,57.455708 171.714401,58.820385 171.176773,60.104607 
	C170.897690,60.024151 170.974457,60.010464 170.967285,60.048759 
z"/>
<path fill="#E2E0E5" opacity="1.000000" stroke="none" 
	d="
M183.614792,53.957596 
	C183.554077,53.311333 183.809525,52.581261 184.467392,51.751549 
	C184.556854,52.392536 184.243912,53.133156 183.614792,53.957596 
z"/>
<path fill="#E2E0E5" opacity="1.000000" stroke="none" 
	d="
M185.988586,51.500763 
	C186.433655,52.136745 186.921478,52.802670 187.409302,53.468594 
	C187.047058,53.660320 186.684814,53.852051 186.322556,54.043781 
	C186.195175,53.403004 186.067795,52.762226 185.946686,51.798603 
	C185.952972,51.475758 186.031342,51.530704 185.988586,51.500763 
z"/>
<path fill="#E2E0E5" opacity="1.000000" stroke="none" 
	d="
M191.658524,49.615189 
	C191.845612,49.291885 191.869415,49.360939 191.902420,49.345470 
	C191.935425,50.102509 191.935425,50.875019 191.935425,51.647526 
	C191.743149,51.645279 191.550873,51.643032 191.358597,51.640789 
	C191.396210,51.073357 191.433823,50.505924 191.658524,49.615189 
z"/>
<path fill="#E1DFE4" opacity="1.000000" stroke="none" 
	d="
M214.552582,43.650986 
	C214.746628,43.393459 214.868347,43.452244 214.947113,43.434593 
	C214.797470,43.890614 214.569092,44.364288 214.340698,44.837963 
	C214.346649,44.528145 214.352585,44.218330 214.552582,43.650986 
z"/>
<path fill="#DDDAE0" opacity="1.000000" stroke="none" 
	d="
M173.652725,55.724659 
	C173.637085,56.000221 173.493378,56.150028 173.349686,56.299835 
	C173.408005,56.066185 173.466339,55.832542 173.652725,55.724659 
z"/>
<path fill="#E1DFE4" opacity="1.000000" stroke="none" 
	d="
M216.650085,42.747383 
	C216.668167,42.383453 216.716095,42.338516 216.745697,42.313911 
	C217.060638,42.814228 217.345963,43.339149 217.631302,43.864071 
	C217.518707,43.931969 217.406128,43.999866 217.293549,44.067768 
	C217.073029,43.748951 216.852509,43.430134 216.650085,42.747383 
z"/>
<path fill="#DDDAE0" opacity="1.000000" stroke="none" 
	d="
M174.328018,59.285393 
	C174.342529,59.002419 174.491791,58.847980 174.641052,58.693539 
	C174.581635,58.933666 174.522202,59.173798 174.328018,59.285393 
z"/>
<path fill="#3F3053" opacity="1.000000" stroke="none" 
	d="
M412.909241,449.211792 
	C413.146301,448.801483 413.350952,448.749390 413.806854,448.890259 
	C413.664337,449.245453 413.270538,449.407715 412.909241,449.211792 
z"/>
<path fill="#EAE8EC" opacity="1.000000" stroke="none" 
	d="
M359.981079,62.970867 
	C359.953033,62.940327 360.271423,62.568447 360.271423,62.568447 
	C360.271423,62.568447 360.287903,62.920834 360.179810,62.988297 
	C360.071686,63.055756 360.009094,63.001408 359.981079,62.970867 
z"/>
<path fill="#E4E1E6" opacity="1.000000" stroke="none" 
	d="
M375.559753,474.597656 
	C375.449860,474.671265 375.393921,474.391174 375.393921,474.391174 
	C375.393921,474.391174 375.669678,474.524048 375.559753,474.597656 
z"/>
<path fill="#FAFAFB" opacity="1.000000" stroke="none" 
	d="
M197.667389,46.852364 
	C197.724396,47.114033 197.473541,47.357800 196.959610,47.631107 
	C196.917526,47.385258 197.138535,47.109859 197.667389,46.852364 
z"/>
</svg>