<?xml version="1.0" standalone="no"?>
<!DOCTYPE svg PUBLIC "-//W3C//DTD SVG 20010904//EN"
 "http://www.w3.org/TR/2001/REC-SVG-20010904/DTD/svg10.dtd">
<svg version="1.0" xmlns="http://www.w3.org/2000/svg"
 width="570.000000pt" height="569.000000pt" viewBox="0 0 570.000000 569.000000"
 preserveAspectRatio="xMidYMid meet">

<g transform="translate(0.000000,569.000000) scale(0.100000,-0.100000)"
fill="#000000" stroke="none">
<path d="M0 2845 l0 -2845 2850 0 2850 0 0 2845 0 2845 -2850 0 -2850 0 0
-2845z m3260 2715 c233 -26 630 -131 735 -194 22 -14 100 -56 173 -95 430
-227 779 -545 1011 -919 87 -140 209 -383 240 -479 17 -51 37 -105 44 -120 32
-63 84 -283 62 -261 -3 3 -21 59 -40 126 -37 130 -94 286 -102 279 -2 -3 -40
65 -83 151 -43 87 -110 204 -147 262 -69 105 -203 269 -242 297 -12 8 -19 18
-16 23 3 5 -6 17 -21 27 -14 10 -81 69 -148 132 -125 117 -297 251 -401 313
-96 57 -271 142 -395 191 -617 245 -1301 257 -1890 32 -101 -38 -322 -144
-355 -169 -11 -9 38 11 109 45 71 33 132 57 137 52 4 -4 -63 -41 -149 -82 -86
-41 -179 -91 -207 -111 -27 -20 -72 -49 -99 -64 -97 -54 -402 -332 -522 -477
-77 -92 -177 -232 -210 -294 -39 -72 -19 -48 84 105 153 226 241 318 497 523
314 252 694 436 1053 511 67 14 137 26 155 26 17 0 37 4 44 8 7 4 -16 7 -50 7
-34 0 -67 -3 -73 -7 -14 -9 -187 -48 -192 -43 -13 12 93 47 194 64 578 98
1161 11 1663 -250 292 -151 610 -419 824 -694 96 -123 203 -286 217 -332 7
-21 20 -47 30 -58 67 -76 202 -466 249 -720 23 -125 41 -288 41 -378 0 -98 -9
-60 -20 82 -11 142 -55 402 -70 411 -5 3 -26 59 -45 124 -66 215 -195 524
-215 511 -6 -3 0 -22 16 -46 14 -23 23 -43 20 -46 -6 -6 -66 97 -66 115 0 6 5
12 10 12 17 0 -18 59 -107 178 -116 156 -313 382 -313 359 0 -3 45 -54 100
-113 103 -110 277 -344 257 -344 -3 0 -20 24 -38 52 -142 221 -415 491 -670
661 -118 78 -271 155 -322 161 -54 7 -289 100 -279 111 4 5 -1 5 -11 2 -10 -4
-16 -3 -13 1 8 13 -42 38 -133 66 -72 23 -87 25 -98 13 -12 -12 -27 -12 -101
0 -136 22 -222 34 -287 38 -33 2 -82 6 -109 9 -34 4 -62 0 -95 -13 -29 -12
-83 -21 -147 -25 -413 -24 -903 -208 -1261 -475 -136 -101 -275 -231 -291
-272 -9 -23 -24 -41 -38 -46 -24 -8 -177 -199 -255 -318 -200 -305 -328 -641
-386 -1015 -25 -161 -24 -518 1 -685 89 -586 353 -1091 762 -1456 131 -117
406 -327 486 -372 161 -90 549 -236 723 -272 115 -24 311 -39 530 -39 166 0
208 3 335 27 180 34 334 74 380 98 19 11 47 19 61 19 47 0 261 99 436 201 100
59 193 122 273 187 l55 44 -60 -57 c-60 -57 -224 -170 -347 -241 -37 -21 -66
-40 -63 -42 12 -12 230 123 390 240 44 33 60 42 36 21 -237 -208 -594 -383
-994 -490 -203 -53 -255 -61 -487 -73 -118 -6 -222 -12 -230 -14 -8 -2 60 -4
152 -5 325 -2 617 59 971 204 73 30 124 48 113 40 -10 -8 -58 -31 -107 -52
-49 -20 -87 -39 -85 -41 9 -9 219 82 267 116 30 21 90 57 134 81 160 88 278
176 439 331 49 47 84 76 78 65 -29 -56 -261 -257 -411 -357 -86 -58 -116 -83
-56 -48 252 147 570 442 752 695 27 39 63 93 78 120 15 28 52 92 82 143 168
286 273 677 292 1086 l7 151 8 -80 c34 -313 -82 -846 -260 -1196 -20 -41 -21
-48 -8 -51 13 -2 1 -26 -48 -100 -35 -53 -79 -114 -97 -135 -18 -21 -59 -76
-93 -122 -33 -46 -96 -122 -139 -168 -43 -46 -79 -87 -79 -92 0 -5 -45 -48
-99 -96 -156 -136 -466 -342 -561 -370 -14 -4 -41 -18 -60 -31 -50 -33 -245
-109 -380 -149 -133 -39 -321 -78 -465 -96 -129 -16 -481 -16 -610 0 -618 77
-1167 343 -1587 768 -129 130 -281 311 -346 411 -26 40 -65 101 -88 135 -69
106 -224 421 -224 456 0 6 -4 11 -9 11 -18 0 -131 391 -131 450 0 16 -5 41
-11 57 -6 15 -12 66 -15 113 -2 47 -9 110 -15 140 -11 54 -7 248 8 334 4 29 3
37 -6 32 -20 -13 -1 127 65 469 28 143 119 399 203 570 91 185 238 411 320
493 31 31 47 50 36 42 -19 -15 -19 -15 0 10 51 65 109 130 113 125 3 -2 -1
-13 -9 -22 -8 -10 39 33 104 95 403 384 947 653 1490 737 228 35 516 41 747
15z m-1097 -225 c-21 -15 -176 -75 -194 -75 -5 0 -9 4 -9 9 0 5 44 25 98 44
106 39 139 46 105 22z m856 -985 c203 -18 372 -62 540 -141 46 -21 85 -39 87
-39 2 0 4 14 4 30 0 75 51 130 120 130 l30 0 0 -425 0 -425 -74 0 -73 0 -7 78
c-28 327 -210 549 -521 633 -119 33 -348 33 -460 1 -210 -61 -346 -185 -384
-353 -6 -24 -11 -80 -11 -125 0 -186 74 -308 264 -436 112 -75 176 -107 506
-253 452 -200 532 -247 667 -389 142 -149 193 -266 201 -463 5 -141 -11 -231
-59 -333 -83 -176 -220 -305 -423 -401 -242 -113 -613 -147 -924 -83 -156 31
-359 111 -483 190 l-37 23 -7 -74 c-5 -51 -13 -80 -26 -94 -17 -18 -76 -41
-107 -41 -10 0 -12 105 -10 507 l3 508 70 0 70 0 12 -90 c69 -482 288 -748
669 -811 262 -43 520 25 680 178 176 169 202 462 59 657 -70 95 -209 197 -393
290 -43 22 -188 87 -323 146 -134 59 -280 126 -324 148 -345 173 -519 425
-501 729 27 481 515 785 1165 728z m2539 -950 l0 -25 -8 25 c-4 14 -8 39 -8
55 l0 30 8 -30 c4 -16 8 -41 8 -55z"/>
<path d="M2710 5420 l-25 -8 25 -1 c14 0 32 4 40 9 13 9 13 10 0 9 -8 -1 -26
-5 -40 -9z"/>
<path d="M2848 5363 c12 -2 30 -2 40 0 9 3 -1 5 -23 4 -22 0 -30 -2 -17 -4z"/>
<path d="M3000 5360 c0 -6 27 -10 62 -10 74 0 73 5 -4 14 -37 4 -58 2 -58 -4z"/>
<path d="M3305 5340 c3 -5 21 -10 38 -9 27 0 29 2 12 9 -28 12 -57 12 -50 0z"/>
<path d="M3610 5310 c19 -13 30 -13 30 0 0 6 -10 10 -22 10 -19 0 -20 -2 -8
-10z"/>
<path d="M3761 5226 c12 -11 79 -34 79 -26 0 4 -14 13 -31 19 -32 11 -56 15
-48 7z"/>
<path d="M3950 5144 c0 -7 52 -25 57 -20 2 2 -10 8 -26 14 -17 6 -31 9 -31 6z"/>
<path d="M4320 5003 c1 -11 50 -46 56 -40 3 3 -9 15 -25 27 -17 12 -31 18 -31
13z"/>
<path d="M4511 4857 c2 -1 15 -11 29 -22 l25 -20 -19 23 c-11 12 -24 22 -29
22 -6 0 -8 -1 -6 -3z"/>
<path d="M3840 393 c-114 -46 -297 -99 -450 -128 -93 -19 -108 -23 -60 -19
144 12 400 83 550 153 88 40 65 37 -40 -6z"/>
</g>
</svg>
